<?xml version="1.0" encoding="UTF-8"?>
<!DOCTYPE svg PUBLIC "-//W3C//DTD SVG 1.1//EN" "http://www.w3.org/Graphics/SVG/1.1/DTD/svg11.dtd">
<!-- Creator: CorelDRAW -->
<svg xmlns="http://www.w3.org/2000/svg" xml:space="preserve" width="47.5774mm" height="15.5631mm" version="1.1" style="shape-rendering:geometricPrecision; text-rendering:geometricPrecision; image-rendering:optimizeQuality; fill-rule:evenodd; clip-rule:evenodd"
viewBox="0 0 3284.59 1074.43"
 xmlns:xlink="http://www.w3.org/1999/xlink">
 <defs>
  <style type="text/css">
   <![CDATA[
    .fil1 {fill:white;fill-rule:nonzero}
    .fil0 {fill:#2B2B2A;fill-rule:nonzero}
   ]]>
  </style>
 </defs>
 <g id="Capa_x0020_1">
  <metadata id="CorelCorpID_0Corel-Layer"/>
  <g id="_105553454114272">
   <path class="fil0" d="M3284.59 929.22c0,80.17 -64.98,145.21 -145.16,145.21l-2994.24 0c-80.18,0 -145.2,-65.04 -145.2,-145.21l0 -784.03c0,-80.17 65.02,-145.19 145.2,-145.19l2994.24 0c80.17,0 145.16,65.02 145.16,145.19l0 784.03z"/>
   <path class="fil1" d="M856.53 710.2c-17.39,38.54 -25.72,55.74 -48.1,89.8 -31.25,47.57 -75.26,106.78 -129.81,107.28 -48.48,0.45 -60.93,-31.55 -126.72,-31.18 -65.79,0.36 -79.52,31.75 -128.01,31.31 -54.55,-0.5 -96.27,-53.99 -127.51,-101.53 -87.35,-132.98 -96.49,-289.03 -42.61,-371.99 38.29,-58.96 98.67,-93.48 155.47,-93.48 57.82,0 94.17,31.72 141.97,31.72 46.37,0 74.64,-31.76 141.48,-31.76 50.53,0 104.07,27.5 142.22,75.1 -124.99,68.49 -104.69,247.02 21.61,294.75z"/>
   <path class="fil1" d="M641.99 287.23c24.27,-31.17 42.73,-75.21 36.04,-120.2 -39.66,2.73 -86.09,27.97 -113.19,60.88 -24.6,29.88 -44.89,74.19 -36.99,117.25 43.31,1.35 88.12,-24.53 114.14,-57.93z"/>
   <path class="fil1" d="M1152.34 492.43c4.23,16.44 8.78,33.51 14.64,51.96l33.72 97.66 -95.97 0 33.25 -98.29c5.07,-15.93 9.87,-33.15 14.36,-51.32zm-29.69 -60.57l-125.13 368.33 57.3 0 37.36 -113.1 121.16 0 38.42 113.1 58.88 0 -125.67 -368.33 -62.32 0z"/>
   <path class="fil1" d="M1458.68 573.48c49.68,0 71.91,46.02 71.91,91.62 0,58.82 -28.37,95.36 -74.03,95.36 -31.17,0 -58.14,-21.22 -65.65,-51.72 -1.29,-4.72 -1.98,-10.98 -1.98,-18.04l0 -44.81c0,-4.07 0.91,-8.99 1.77,-13.76 0.28,-1.53 0.57,-3.04 0.79,-4.53 8.31,-31.88 35.9,-54.12 67.18,-54.12zm13.88 -46.14c-37.96,0 -68.35,14.66 -88.59,42.5l-2.22 -36.63 -50.97 0 0.3 4.68c1.51,22.82 2.13,47.95 2.13,84.01l0 283.91 55.73 0 0 -132.49c17.29,20.68 44.89,32.73 76.18,32.73 32.57,0 62.58,-12.76 84.45,-35.9 24.41,-25.8 37.29,-62.89 37.29,-107.19 0,-39.14 -11.18,-73 -32.38,-97.87 -20.75,-24.35 -49.83,-37.75 -81.9,-37.75z"/>
   <path class="fil1" d="M1745.65 573.48c49.66,0 71.89,46.02 71.89,91.62 0,58.82 -28.39,95.36 -74.02,95.36 -31.16,0 -58.14,-21.22 -65.65,-51.72 -1.29,-4.72 -1.96,-10.98 -1.96,-18.04l0 -44.81c0,-4.09 0.9,-9.03 1.77,-13.81 0.28,-1.5 0.55,-3 0.81,-4.48 8.28,-31.88 35.88,-54.12 67.16,-54.12zm13.88 -46.14c-37.95,0 -68.35,14.66 -88.6,42.5l-2.22 -36.63 -50.96 0 0.28 4.68c1.51,22.85 2.15,47.95 2.15,84.01l0 283.91 55.73 0 0 -132.49c17.29,20.68 44.87,32.73 76.15,32.73 32.57,0 62.58,-12.76 84.48,-35.9 24.38,-25.8 37.26,-62.89 37.26,-107.19 0,-39.14 -11.2,-73 -32.39,-97.87 -20.74,-24.35 -49.82,-37.75 -81.88,-37.75z"/>
   <path class="fil1" d="M2119.04 587.93c-52.01,-20.14 -68.68,-35.98 -68.68,-65.25 0,-24.65 19.58,-49.49 63.35,-49.49 36.1,0 59.19,12.55 65.42,16.42l4.72 2.91 15.73 -46.5 -3.11 -1.82c-9.33,-5.47 -35.94,-18.2 -81.15,-18.2 -71.07,0 -120.7,41.95 -120.7,102 0,48.43 31.09,82.28 97.81,106.54 47.3,17.67 64.9,35.78 64.9,66.83 0,35.13 -27.16,56.94 -70.84,56.94 -28.45,0 -57.72,-8.29 -80.32,-22.78l-4.83 -3.1 -14.96 47.58 2.75 1.82c21.04,14.05 60.64,24.21 94.18,24.21 95.77,0 129.74,-58.4 129.74,-108.42 0,-51.56 -27.23,-83.36 -94,-109.71z"/>
   <path class="fil1" d="M2313.35 469.75l-54.66 17.16 0 46.3 -40.01 0 0 44.54 40.01 0 0 136.43c0,32.99 6.31,56.09 19.3,70.71 12.45,13.65 31.6,21.17 53.92,21.17 21.07,0 36.03,-4.16 43.08,-6.66l3.12 -1.1 -2.67 -44.63 -5.34 1.64c-7.05,2.16 -14.28,3 -25.92,3 -21.59,0 -30.81,-13.66 -30.81,-45.74l0 -134.82 67.22 0 0 -44.54 -67.22 0 0 -63.46z"/>
   <path class="fil1" d="M2517.07 571.34c50.13,0 72.95,48.87 72.95,94.3 0,55.86 -31.14,96.42 -74.01,96.42l-0.55 0c-42.26,0 -72.94,-39.87 -72.94,-94.8 0,-47.73 23.07,-95.91 74.55,-95.91zm1.61 -44c-77.97,0 -132.42,58.2 -132.42,141.48 0,80.8 52.69,137.22 128.15,137.22l0.52 0c63.79,0 132.43,-44.45 132.43,-142.02 0,-39.67 -12.28,-73.75 -35.52,-98.57 -23.38,-24.92 -55.6,-38.12 -93.16,-38.12z"/>
   <path class="fil1" d="M2818.04 529.93l-3.34 -0.85c-4.92,-1.23 -8.92,-1.74 -13.86,-1.74 -29.15,0 -55.31,17.17 -69.87,44.86l-1.64 -38.99 -50.01 0 0.32 4.68c1.48,22.06 2.11,46.83 2.11,80.25l-0.52 182.05 55.73 0 0 -142.02c0,-7.74 0.52,-15.04 1.53,-21.61 6.28,-34.11 29.31,-56.15 58.63,-56.15 5.7,0 10.2,0.46 14.95,0.93l5.96 0.61 0 -52.02z"/>
   <path class="fil1" d="M2939.61 569.22c16.97,0 30.74,5.25 40.91,15.6 16.03,16.32 18.84,40.35 19.19,51.88l-127.1 0c5.18,-32.18 25.3,-67.48 66.99,-67.48zm3.71 -42.4c-74.19,0 -126,59.28 -126,144.16 0,81.73 51.54,134.55 131.34,134.55 41.95,0 71.15,-9.21 88.23,-16.92l3.36 -1.52 -10.71 -41.52 -4.65 1.87c-15.19,6.18 -35.37,12.49 -69.82,12.49 -24.21,0 -80.05,-7.99 -83.47,-80.8l179.87 0.55 0.72 -3.57c1.13,-5.65 1.68,-13.29 1.68,-23.26 0,-58.13 -28.95,-126.03 -110.55,-126.03z"/>
   <path class="fil1" d="M1022.81 334.66c6.32,1.04 15.52,1.04 25.3,1.04 53.46,0.25 82.48,-26.9 82.48,-73.97 0.29,-41.64 -25.58,-67.25 -78.45,-67.25 -12.92,0 -22.71,1.04 -29.32,2.33l0 137.86zm-25.29 -154.41c15.53,-2.06 33.63,-3.62 53.45,-3.62 35.93,0 61.51,7.25 78.47,21.48 17.53,14.21 27.59,34.64 27.59,62.84 0,28.45 -10.07,51.72 -27.88,67.76 -18.4,16.3 -48.29,25.09 -85.93,25.09 -18.11,0 -32.76,-0.52 -45.7,-2.08l0 -171.48z"/>
   <path class="fil1" d="M1247.52 338.02c24.14,0 42.25,-20.43 42.25,-48.88 0,-21.22 -11.78,-47.85 -41.67,-47.85 -29.61,0 -42.54,24.83 -42.54,48.63 0,27.41 17.24,48.1 41.67,48.1l0.29 0zm-0.86 17.07c-37.37,0 -66.68,-24.82 -66.68,-64.39 0,-41.91 30.75,-66.48 68.97,-66.48 39.96,0 66.96,26.12 66.96,64.14 0,46.56 -35.91,66.72 -68.95,66.72l-0.3 0z"/>
   <path class="fil1" d="M1355.93 227.06l18.67 63.38c3.73,13.96 7.48,27.15 10.06,40.08l0.86 0c3.16,-12.68 7.75,-26.12 12.36,-39.83l22.7 -63.64 21.28 0 21.56 62.6c5.16,14.75 9.19,28.19 12.35,40.87l0.86 0c2.3,-12.68 6.03,-25.87 10.63,-40.61l19.82 -62.86 25.01 0 -44.83 125.18 -23 0 -21.26 -59.74c-4.89,-14.23 -8.91,-26.65 -12.37,-41.39l-0.57 0c-3.45,15 -7.76,28.19 -12.65,41.64l-22.41 59.48 -22.99 0 -41.97 -125.18 25.87 0z"/>
   <path class="fil1" d="M1557.41 260.95c0,-13.19 -0.29,-23.53 -1.16,-33.89l22.43 0 1.43 20.44 0.58 0c6.9,-11.64 22.98,-23.28 45.98,-23.28 19.25,0 49.14,10.34 49.14,53.28l0 74.74 -25.27 0 0 -72.16c0,-20.17 -8.35,-37.23 -32.21,-37.23 -16.38,0 -29.32,10.6 -33.9,23.27 -1.15,2.84 -1.73,6.98 -1.73,10.6l0 75.52 -25.28 0 0 -91.29z"/>
   <polygon class="fil1" points="1716.91,168.62 1742.2,168.62 1742.2,352.25 1716.91,352.25 "/>
   <path class="fil1" d="M1841.63 338.02c24.15,0 42.26,-20.43 42.26,-48.88 0,-21.22 -11.78,-47.85 -41.66,-47.85 -29.61,0 -42.55,24.83 -42.55,48.63 0,27.41 17.25,48.1 41.68,48.1l0.28 0zm-0.85 17.07c-37.35,0 -66.66,-24.82 -66.66,-64.39 0,-41.91 30.73,-66.48 68.97,-66.48 39.94,0 66.95,26.12 66.95,64.14 0,46.56 -35.93,66.72 -68.97,66.72l-0.28 0z"/>
   <path class="fil1" d="M2015.25 288.37c-27.6,-0.52 -58.92,3.88 -58.92,28.19 0,15 10.92,21.73 23.57,21.73 18.39,0 30.18,-10.35 34.19,-20.95 0.87,-2.33 1.16,-4.92 1.16,-7.24l0 -21.73zm24.7 33.88c0,10.86 0.58,21.46 2.02,30l-22.71 0 -2.3 -15.77 -0.85 0c-7.47,9.82 -22.71,18.61 -42.53,18.61 -28.15,0 -42.53,-17.84 -42.53,-35.95 0,-30.25 29.88,-46.81 83.62,-46.55l0 -2.58c0,-10.34 -3.15,-29.22 -31.61,-28.97 -13.23,0 -26.73,3.36 -36.5,9.31l-5.76 -15.25c11.5,-6.47 28.46,-10.87 45.99,-10.87 42.82,0 53.16,26.12 53.16,51.21l0 46.81z"/>
   <path class="fil1" d="M2175.32 278.02c0,-3.1 -0.28,-6.72 -1.16,-9.82 -3.72,-14.22 -17.52,-26.12 -36.49,-26.12 -26.16,0 -41.68,20.69 -41.68,48.11 0,25.6 14.1,46.54 41.1,46.54 16.96,0 32.48,-10.33 37.07,-27.15 0.88,-3.11 1.16,-6.21 1.16,-9.82l0 -21.73zm25.28 -109.4l0 151.29c0,11.13 0.31,23.8 1.15,32.34l-22.69 0 -1.15 -21.72 -0.58 0c-7.76,13.97 -24.43,24.56 -47.13,24.56 -33.63,0 -59.79,-25.6 -59.79,-63.62 -0.29,-41.91 28.75,-67.24 62.36,-67.24 21.57,0 35.93,9.06 41.97,18.88l0.57 0 0 -74.49 25.28 0z"/>
   <path class="fil1" d="M2360.98 338.02c24.14,0 42.24,-20.43 42.24,-48.88 0,-21.22 -11.77,-47.85 -41.66,-47.85 -29.61,0 -42.53,24.83 -42.53,48.63 0,27.41 17.25,48.1 41.66,48.1l0.29 0zm-0.86 17.07c-37.36,0 -66.68,-24.82 -66.68,-64.39 0,-41.91 30.77,-66.48 68.97,-66.48 39.97,0 66.97,26.12 66.97,64.14 0,46.56 -35.93,66.72 -68.97,66.72l-0.3 0z"/>
   <path class="fil1" d="M2461.3 260.95c0,-13.19 -0.29,-23.53 -1.15,-33.89l22.42 0 1.45 20.44 0.57 0c6.9,-11.64 22.99,-23.28 45.98,-23.28 19.26,0 49.15,10.34 49.15,53.28l0 74.74 -25.3 0 0 -72.16c0,-20.17 -8.32,-37.23 -32.18,-37.23 -16.37,0 -29.32,10.6 -33.92,23.27 -1.15,2.84 -1.72,6.98 -1.72,10.6l0 75.52 -25.29 0 0 -91.29z"/>
   <path class="fil1" d="M2712.2 197.07l0 30 36.2 0 0 17.33 -36.2 0 0 67.52c0,15.51 4.89,24.3 18.97,24.3 6.89,0 10.93,-0.51 14.66,-1.55l1.15 17.33c-4.87,1.55 -12.64,3.1 -22.42,3.1 -11.78,0 -21.28,-3.62 -27.31,-9.56 -6.9,-6.99 -9.76,-18.12 -9.76,-32.85l0 -68.28 -21.55 0 0 -17.33 21.55 0 0 -23.01 24.72 -6.99z"/>
   <path class="fil1" d="M2776.87 168.62l25.29 0 0 78.11 0.59 0c4.01,-6.46 10.33,-12.41 18.11,-16.04 7.47,-4.13 16.36,-6.46 25.87,-6.46 18.67,0 48.56,10.34 48.56,53.54l0 74.48 -25.29 0 0 -71.89c0,-20.44 -8.33,-37.25 -32.19,-37.25 -16.38,0 -29.02,10.35 -33.92,22.75 -1.44,3.11 -1.73,6.47 -1.73,10.87l0 75.52 -25.29 0 0 -183.63z"/>
   <path class="fil1" d="M3024.63 277.24c0.26,-14.23 -6.62,-36.98 -34.79,-36.98 -25.87,0 -36.79,21.21 -38.79,36.98l73.59 0zm-73.88 16.29c0.59,30.78 22.15,43.46 47.43,43.46 18.1,0 29.32,-2.85 38.52,-6.21l4.6 16.03c-8.93,3.62 -24.45,8.02 -46.57,8.02 -42.54,0 -68.41,-25.61 -68.41,-63.1 0,-38.03 25.02,-67.77 65.52,-67.77 45.43,0 57.19,35.95 57.19,58.97 0,4.65 -0.26,8.28 -0.84,10.87l-97.44 -0.26z"/>
  </g>
 </g>
</svg>
