<?xml version="1.0" encoding="UTF-8"?>
<!DOCTYPE svg PUBLIC "-//W3C//DTD SVG 1.1//EN" "http://www.w3.org/Graphics/SVG/1.1/DTD/svg11.dtd">
<!-- Creator: CorelDRAW -->
<svg xmlns="http://www.w3.org/2000/svg" xml:space="preserve" width="49.9984mm" height="10mm" version="1.1" style="shape-rendering:geometricPrecision; text-rendering:geometricPrecision; image-rendering:optimizeQuality; fill-rule:evenodd; clip-rule:evenodd"
viewBox="0 0 421.47 84.3"
 xmlns:xlink="http://www.w3.org/1999/xlink">
 <defs>
  <style type="text/css">
   <![CDATA[
    .str0 {stroke:#4D4D4D;stroke-width:2.08;stroke-linecap:round;stroke-miterlimit:10}
    .fil2 {fill:none;fill-rule:nonzero}
    .fil3 {fill:black;fill-rule:nonzero}
    .fil1 {fill:#4D4D4D;fill-rule:nonzero}
    .fil0 {fill:#E6E6E6;fill-rule:nonzero}
   ]]>
  </style>
   <mask id="id0">
  <linearGradient id="id1" gradientUnits="userSpaceOnUse" x1="221.58" y1="29.14" x2="9.25" y2="29.14">
   <stop offset="0" style="stop-opacity:1; stop-color:white"/>
   <stop offset="1" style="stop-opacity:0; stop-color:white"/>
  </linearGradient>
    <rect style="fill:url(#id1)" x="-1.49" y="-1.49" width="424.44" height="87.27"/>
   </mask>
 </defs>
 <g id="Capa_x0020_1">
  <metadata id="CorelCorpID_0Corel-Layer"/>
  <path class="fil0" style="mask:url(#id0)" d="M379.32 84.3l-337.17 0c-23.28,0 -42.14,-18.87 -42.14,-42.15 0,-23.28 18.87,-42.15 42.14,-42.15l337.17 0c23.28,0 42.15,18.87 42.15,42.15 0,23.28 -18.87,42.15 -42.15,42.15z"/>
  <path class="fil1" d="M182.4 56.78c3.35,0 5.95,-0.66 7.94,-1.78l0 -3.47c-1.78,0.83 -3.89,1.7 -7.23,1.7 -6.24,0 -8.68,-3.97 -8.68,-10.71l0 -1.53c0,-7.03 3.55,-9.92 8.56,-9.92 2.73,0 4.75,0.62 7.03,1.45l0 -3.47c-1.74,-0.91 -4.01,-1.53 -7.07,-1.53 -7.19,0 -13.1,3.84 -13.1,14.06l0 0.99c0,9.59 4.88,14.22 12.57,14.22z"/>
  <path id="1" class="fil1" d="M194.47 56.33l4.05 0 0 -16.12c1.45,-0.95 3.39,-1.53 5.37,-1.53 0.41,0 1.12,0.04 1.65,0.12l0 -3.64c-0.21,-0.12 -0.83,-0.17 -1.32,-0.17 -2.27,0 -4.42,1.2 -5.66,2.6l-0.17 0 0 -2.36 -3.93 0 0 21.08z"/>
  <path id="2" class="fil1" d="M218.03 56.7c3.51,0 5.95,-1.08 7.28,-2.03l0 -2.85c-1.94,0.87 -3.76,1.53 -6.53,1.53 -4.13,0 -6.49,-1.61 -6.78,-6.45l13.97 0 0 -1.98c0,-6.66 -2.77,-10.09 -8.72,-10.09 -5.08,0 -9.43,3.43 -9.43,10.67l0 0.54c0,6.61 3.39,10.67 10.21,10.67zm-0.95 -18.65c3.06,0 4.63,1.61 4.63,5.87l-9.72 0c0.33,-4.71 2.85,-5.87 5.08,-5.87z"/>
  <path id="3" class="fil1" d="M235.36 56.7c2.73,0 4.47,-0.91 5.46,-2.15l0.25 0 0.37 1.78 3.35 0 0 -15.26c0,-4.26 -2.77,-6.24 -7.52,-6.24 -2.6,0 -4.75,0.41 -6.7,1.2l0 2.85c1.28,-0.29 3.02,-0.62 5.09,-0.62 3.72,0 5.04,0.7 5.04,3.84l0 1.82 -5.29 0.62c-4.09,0.54 -6.57,2.4 -6.57,6.16 0,4.09 2.73,6 6.53,6zm1.07 -2.98c-2.11,0 -3.47,-1.03 -3.47,-3.18 0,-2.19 1.12,-3.1 3.35,-3.35l4.38 -0.46 0 5.62c-0.83,0.79 -2.52,1.36 -4.26,1.36z"/>
  <path id="4" class="fil1" d="M250.07 56.33l4.05 0 0 -16.12c1.45,-0.95 3.39,-1.53 5.37,-1.53 0.41,0 1.12,0.04 1.65,0.12l0 -3.64c-0.21,-0.12 -0.83,-0.17 -1.32,-0.17 -2.27,0 -4.42,1.2 -5.66,2.6l-0.17 0 0 -2.36 -3.93 0 0 21.08z"/>
  <path id="5" class="fil1" d="M287.12 56.78c3.35,0 5.95,-0.66 7.94,-1.78l0 -3.47c-1.78,0.83 -3.89,1.7 -7.23,1.7 -6.24,0 -8.68,-3.97 -8.68,-10.71l0 -1.53c0,-7.03 3.55,-9.92 8.56,-9.92 2.73,0 4.75,0.62 7.03,1.45l0 -3.47c-1.74,-0.91 -4.01,-1.53 -7.07,-1.53 -7.19,0 -13.1,3.84 -13.1,14.06l0 0.99c0,9.59 4.88,14.22 12.57,14.22z"/>
  <path id="6" class="fil1" d="M305.47 56.7c2.65,0 4.75,-0.95 6.49,-2.19l0.21 0 0.41 1.82 3.47 0 0 -21.08 -4.05 0 0 16.66c-1.45,0.66 -3.1,1.36 -5.17,1.36 -2.85,0 -3.68,-0.95 -3.68,-3.43l0 -14.59 -4.09 0 0 15.3c0,4.09 2.27,6.16 6.41,6.16z"/>
  <path id="7" class="fil1" d="M330.48 56.7c3.51,0 5.95,-1.08 7.28,-2.03l0 -2.85c-1.94,0.87 -3.76,1.53 -6.53,1.53 -4.13,0 -6.49,-1.61 -6.78,-6.45l13.97 0 0 -1.98c0,-6.66 -2.77,-10.09 -8.72,-10.09 -5.08,0 -9.43,3.43 -9.43,10.67l0 0.54c0,6.61 3.39,10.67 10.21,10.67zm-0.95 -18.65c3.06,0 4.63,1.61 4.63,5.87l-9.72 0c0.33,-4.71 2.85,-5.87 5.08,-5.87z"/>
  <path id="8" class="fil1" d="M342.55 56.33l4.05 0 0 -16.7c1.45,-0.7 3.47,-1.32 5.25,-1.32 3.18,0 3.84,0.95 3.84,3.27l0 14.76 4.09 0 0 -15.71c0,-4.09 -1.98,-5.79 -6.08,-5.79 -2.56,0 -5.29,0.99 -7.07,2.23l-0.17 0 0 -1.82 -3.93 0 0 21.08z"/>
  <path id="9" class="fil1" d="M372.11 56.53c1.94,0 2.89,-0.41 3.76,-0.78l0 -2.73c-0.83,0.12 -1.74,0.25 -2.6,0.25 -2.27,0 -2.89,-0.7 -2.89,-2.6l0 -12.15 5.09 0 0 -3.27 -5.09 0 0 -4.96 -4.09 0 0 4.96 -2.98 0 0 3.27 2.98 0 0 12.73c0,3.84 2.31,5.29 5.83,5.29z"/>
  <path id="10" class="fil1" d="M385.09 56.7c2.73,0 4.47,-0.91 5.46,-2.15l0.25 0 0.37 1.78 3.35 0 0 -15.26c0,-4.26 -2.77,-6.24 -7.52,-6.24 -2.6,0 -4.75,0.41 -6.7,1.2l0 2.85c1.28,-0.29 3.02,-0.62 5.09,-0.62 3.72,0 5.04,0.7 5.04,3.84l0 1.82 -5.29 0.62c-4.09,0.54 -6.57,2.4 -6.57,6.16 0,4.09 2.73,6 6.53,6zm1.07 -2.98c-2.11,0 -3.47,-1.03 -3.47,-3.18 0,-2.19 1.12,-3.1 3.35,-3.35l4.38 -0.46 0 5.62c-0.83,0.79 -2.52,1.36 -4.26,1.36z"/>
  <line class="fil2 str0" x1="104.22" y1="17.07" x2="104.22" y2= "67.22" />
  <path class="fil3" d="M68.96 20.23l0 12.13c0,1.06 0.86,1.91 1.91,1.91l9.81 0 -11.72 -14.04z"/>
  <path class="fil3" d="M72.83 49.01l-17.22 0c-0.95,0 -1.74,-0.78 -1.74,-1.74 0,-0.95 0.78,-1.73 1.74,-1.73l17.22 0c0.96,0 1.74,0.78 1.74,1.73 0,0.96 -0.78,1.74 -1.74,1.74zm0 10.68l-17.22 0c-0.95,0 -1.74,-0.78 -1.74,-1.73 0,-0.96 0.78,-1.74 1.74,-1.74l17.22 0c0.96,0 1.74,0.78 1.74,1.74 0,0.95 -0.78,1.73 -1.74,1.73zm-3.63 -21.43c-2.34,0 -4.24,-1.9 -4.24,-4.24l0 -14.16 -12.17 0c-2.78,0 -5.03,2.25 -5.03,5.02l0 34.53c0,2.78 2.25,5.03 5.03,5.03l22.86 0c2.78,0 5.03,-2.25 5.03,-5.03l0 -21.15 -11.47 0z"/>
 </g>
</svg>
