<?xml version="1.0" encoding="UTF-8"?>
<!DOCTYPE svg PUBLIC "-//W3C//DTD SVG 1.1//EN" "http://www.w3.org/Graphics/SVG/1.1/DTD/svg11.dtd">
<!-- Creator: CorelDRAW -->
<svg xmlns="http://www.w3.org/2000/svg" xml:space="preserve" width="46.6447mm" height="15.258mm" version="1.1" style="shape-rendering:geometricPrecision; text-rendering:geometricPrecision; image-rendering:optimizeQuality; fill-rule:evenodd; clip-rule:evenodd"
viewBox="0 0 2752.55 900.39"
 xmlns:xlink="http://www.w3.org/1999/xlink">
 <defs>
  <style type="text/css">
   <![CDATA[
    .fil5 {fill:#FBFBFB;fill-rule:nonzero}
    .fil0 {fill:#2B2B2A;fill-rule:nonzero}
    .fil6 {fill:#FBFBFC;fill-rule:nonzero}
    .fil1 {fill:url(#id0)}
    .fil3 {fill:url(#id1)}
    .fil4 {fill:url(#id2)}
    .fil2 {fill:url(#id3)}
   ]]>
  </style>
  <linearGradient id="id0" gradientUnits="userSpaceOnUse" x1="360.2" y1="173.34" x2="360.2" y2="783.09">
   <stop offset="0" style="stop-opacity:1; stop-color:#287CB2"/>
   <stop offset="0.458824" style="stop-opacity:1; stop-color:#5FA6B9"/>
   <stop offset="1" style="stop-opacity:1; stop-color:#97D0C0"/>
  </linearGradient>
  <linearGradient id="id1" gradientUnits="userSpaceOnUse" x1="401.48" y1="478.22" x2="401.48" y2="784.68">
   <stop offset="0" style="stop-opacity:1; stop-color:#E53B3B"/>
   <stop offset="1" style="stop-opacity:1; stop-color:#924994"/>
  </linearGradient>
  <linearGradient id="id2" gradientUnits="userSpaceOnUse" x1="624.38" y1="396.33" x2="624.38" y2="560.1">
   <stop offset="0" style="stop-opacity:1; stop-color:#F18A7C"/>
   <stop offset="1" style="stop-opacity:1; stop-color:#FDCB77"/>
  </linearGradient>
  <linearGradient id="id3" gradientUnits="userSpaceOnUse" x1="206.46" y1="325.04" x2="596.51" y2="325.04">
   <stop offset="0" style="stop-opacity:1; stop-color:#5CBDAD"/>
   <stop offset="1" style="stop-opacity:1; stop-color:#E5E99C"/>
  </linearGradient>
 </defs>
 <g id="Capa_x0020_1">
  <metadata id="CorelCorpID_0Corel-Layer"/>
  <g id="_105553466719488">
   <path class="fil0" d="M2752.55 778.7c0,67.2 -54.47,121.69 -121.65,121.69l-2509.23 0c-67.19,0 -121.67,-54.49 -121.67,-121.69l0 -657.02c0,-67.19 54.48,-121.68 121.67,-121.68l2509.23 0c67.18,0 121.65,54.49 121.65,121.68l0 657.02z"/>
   <path class="fil1" d="M206.46 199.45l0 1.42 0 1.73 0 2.04 0 2.34 0 2.63 0 2.9 0 3.16 0 3.42 0 3.66 0 3.89 0 4.11 0 4.33 0 4.53 0 4.71 0 4.89 0 5.06 0 5.21 0 5.35 0 5.49 0 5.61 0 5.72 0 5.82 0 5.92 0 5.99 0 6.06 0 6.11 0 6.16 0 6.2 0 6.22 0 6.24 0 6.23 0 6.23 0 6.21 0 6.18 0 6.14 0 6.08 0 6.02 0 5.95 0 5.86 0 5.77 0 5.65 0 5.55 0 5.41 0 5.27 0 5.12 0 4.96 0 4.79 0 4.6 0 4.41 0 4.21 0 3.99 0 3.76 0 3.52 0 3.28 0 3.01 0 2.74 0 2.47 0 2.17 0 1.86 0 1.55 0 1.22 0 0.89 0 0.54 0 0.18 0 0.2 0 0.58 0 0.96 0 1.32 0 1.68 0 2.01 0 2.34 0 2.65 0 2.95 0 3.24 0 3.52 0 3.78 0 4.03 0 4.28 0 4.5 0 4.72 0 4.92 0 5.12 0 5.29 0 5.46 0 5.61 0 5.76 0 5.9 0 6.01 0 6.11 0 6.21 0 6.29 0 6.36 0 6.41 0 6.47 0 6.5 0 6.52 0 6.53 0 6.52 0 6.51 0 6.49 0 6.44 0 6.39 0 6.32 0 6.25 0 6.16 0 6.05 0 5.95 0 5.82 0 5.68 0 5.53 0 5.37 0 5.2 0 5.01 0 4.81 0 4.6 0 4.38 0 4.14 0 3.89 0 3.64 0 3.36 0 3.08 0 2.79 0 2.48 0 2.15 0 1.82 0 1.48 0 1.12 0 0.75c0,6.74 2.97,11.33 7.62,12.89l299.84 -297.3 -297.33 -294.83c-5.98,1.68 -10.13,7.08 -10.13,16.06z"/>
   <path class="fil2" d="M596.51 396.33l-124.12 -71.66 -67.68 -39.08 -172.24 -99.45c-5.68,-3.15 -11.32,-4.04 -15.89,-2.76l297.33 294.83 82.59 -81.9zm0 0l0 0z"/>
   <path class="fil3" d="M214.09 775.52c3.57,1.2 8.13,0.61 13.08,-2.17l12.73 -7.35c50.48,-29.15 232.49,-134.24 232.49,-134.24l124.11 -71.65 -82.58 -81.88 -299.84 297.3z"/>
   <path class="fil4" d="M596.51 560.1l0.14 -0.08 2.08 -1.2 2.84 -1.64 1.49 -0.87 3.84 -2.21 3.52 -2.03 15.12 -8.73 0.41 -0.24 69.88 -40.35 3.86 -2.22 7.39 -4.27 8.82 -5.09c13.37,-7.78 12.6,-18.31 2.02,-24.74l-1.1 -0.64 -0.18 -0.11c-11.81,-6.36 -120.13,-69.36 -120.13,-69.36l-82.59 81.9 82.58 81.88zm0.01 -163.77l0 0z"/>
   <path class="fil5" d="M2138.28 436.42c-18.12,0 -31.22,5.02 -39.31,15.05 -8.08,10.04 -12.24,26 -12.47,47.9l0 5.98c0,24.92 4.16,42.74 12.47,53.48 8.31,10.73 21.63,16.09 39.96,16.09 15.32,0 27.33,-6.2 36.01,-18.59 8.67,-12.4 13.02,-29.51 13.02,-51.3 0,-22.11 -4.34,-39.07 -13.02,-50.89 -8.69,-11.81 -20.91,-17.72 -36.67,-17.72zm3.89 160.98c-11.54,0 -22.09,-2.12 -31.63,-6.38 -9.54,-4.26 -17.56,-10.82 -24.04,-19.66l-1.94 0c1.29,10.35 1.94,20.17 1.94,29.44l0 72.97 -26.84 0 0 -256.92 21.84 0 3.71 24.27 1.29 0c6.92,-9.71 14.96,-16.72 24.12,-21.03 9.16,-4.31 19.69,-6.48 31.54,-6.48 23.52,0 41.67,8.04 54.44,24.12 12.78,16.07 19.18,38.61 19.18,67.63 0,29.12 -6.5,51.74 -19.49,67.88 -13.01,16.12 -31.05,24.17 -54.14,24.17z"/>
   <polygon class="fil5" points="2251.11,342.42 2277.97,342.42 2277.97,594.17 2251.11,594.17 "/>
   <path class="fil5" d="M2371.71 575.25c16.72,0 29.84,-4.58 39.4,-13.74 9.54,-9.16 14.32,-22.01 14.32,-38.52l0 -16.01 -26.87 1.13c-21.35,0.76 -36.74,4.07 -46.19,9.96 -9.44,5.88 -14.16,15.02 -14.16,27.42 0,9.7 2.93,17.1 8.82,22.16 5.88,5.07 14.1,7.61 24.68,7.61zm60.68 18.92l-5.35 -25.24 -1.3 0c-8.84,11.12 -17.66,18.65 -26.45,22.58 -8.78,3.94 -19.76,5.9 -32.92,5.9 -17.58,0 -31.36,-4.53 -41.34,-13.58 -9.98,-9.06 -14.97,-21.94 -14.97,-38.66 0,-35.81 28.64,-54.57 85.91,-56.3l30.11 -0.98 0 -10.99c0,-13.92 -3,-24.2 -8.99,-30.82 -5.98,-6.64 -15.57,-9.96 -28.71,-9.96 -14.78,0 -31.51,4.53 -50.16,13.59l-8.25 -20.55c8.74,-4.74 18.31,-8.46 28.73,-11.16 10.4,-2.7 20.83,-4.05 31.3,-4.05 21.14,0 36.81,4.69 47,14.07 10.19,9.38 15.28,24.43 15.28,45.14l0 121.01 -19.89 0z"/>
   <path class="fil5" d="M2467.87 416.85l28.79 0 38.84 101.12c8.52,23.09 13.81,39.74 15.86,50l1.29 0c1.4,-5.52 4.35,-14.92 8.82,-28.25 4.48,-13.32 19.13,-54.27 43.92,-122.87l28.82 0 -76.21 201.91c-7.55,19.96 -16.36,34.11 -26.46,42.49 -10.08,8.35 -22.47,12.52 -37.12,12.52 -8.2,0 -16.29,-0.91 -24.28,-2.74l0 -21.52c5.92,1.29 12.57,1.94 19.9,1.94 18.45,0 31.6,-10.35 39.48,-31.07l9.86 -25.23 -71.5 -178.3z"/>
   <path class="fil5" d="M1629.07 527.54c8.52,-8.54 9.25,-20.4 9.25,-27.08 0,-26.7 -15.94,-68.24 -46.72,-68.24 -9.65,0 -20.02,4.82 -25.96,12.25 -6.3,7.78 -8.16,17.79 -8.16,27.44 0,24.84 14.46,66.02 46.38,66.02 9.26,0 19.26,-4.46 25.22,-10.39zm-10.76 70.48c-2.96,-0.39 -4.83,-0.39 -8.52,-0.39 -3.34,0 -23.39,0.76 -38.95,5.96 -8.16,2.94 -31.9,11.84 -31.9,38.19 0,26.32 25.6,45.27 65.3,45.27 35.58,0 54.52,-17.1 54.52,-40.07 0,-18.95 -12.24,-28.93 -40.44,-48.96zm26.34 -164.69c8.52,7.05 26.32,21.88 26.32,50.08 0,27.43 -15.57,40.43 -31.16,52.66 -4.82,4.82 -10.38,10.03 -10.38,18.2 0,8.14 5.56,12.59 9.65,15.94l13.35 10.36c16.32,13.72 31.14,26.34 31.14,51.95 0,34.86 -33.75,70.08 -97.54,70.08 -53.79,0 -79.74,-25.58 -79.74,-53.05 0,-13.35 6.64,-32.25 28.56,-45.24 22.98,-14.1 54.16,-15.93 70.84,-17.07 -5.21,-6.67 -11.14,-13.72 -11.14,-25.2 0,-6.3 1.86,-10.01 3.71,-14.48 -4.1,0.38 -8.17,0.75 -11.88,0.75 -39.3,0 -61.56,-29.31 -61.56,-58.23 0,-17.06 7.8,-35.98 23.73,-49.7 21.15,-17.43 46.37,-20.41 66.41,-20.41l76.39 0 -23.74 13.35 -22.98 0z"/>
   <path class="fil5" d="M1457.43 562.09c8.9,-11.86 11.12,-26.67 11.12,-41.12 0,-32.59 -15.55,-94.8 -61.48,-94.8 -12.21,0 -24.43,4.83 -33.32,12.62 -14.44,12.94 -17.05,29.23 -17.05,45.18 0,36.63 18.15,96.98 62.96,96.98 14.44,0 29.25,-7.02 37.76,-18.86zm-46.28 29.99c-58.87,0 -90.35,-45.92 -90.35,-87.4 0,-48.52 39.61,-89.97 95.92,-89.97 54.41,0 88.48,42.56 88.48,87.39 0,43.67 -33.68,89.98 -94.06,89.98z"/>
   <path class="fil5" d="M1256.73 562.09c8.89,-11.86 11.11,-26.67 11.11,-41.12 0,-32.59 -15.56,-94.8 -61.48,-94.8 -12.2,0 -24.44,4.83 -33.32,12.62 -14.45,12.94 -17.03,29.23 -17.03,45.18 0,36.63 18.13,96.98 62.96,96.98 14.44,0 29.25,-7.02 37.76,-18.86zm-46.29 29.99c-58.88,0 -90.35,-45.92 -90.35,-87.4 0,-48.52 39.63,-89.97 95.92,-89.97 54.43,0 88.49,42.56 88.49,87.39 0,43.67 -33.69,89.98 -94.06,89.98z"/>
   <path class="fil5" d="M1091.79 586.27l-53.23 12.29c-21.6,3.36 -40.95,6.31 -61.42,6.31 -102.77,0 -141.84,-75.58 -141.84,-134.78 0,-72.21 55.46,-139.21 150.41,-139.21 20.11,0 39.45,2.97 56.95,7.81 27.92,7.82 40.95,17.49 49.14,23.08l-30.9 29.41 -13.02 2.97 9.31 -14.9c-12.65,-12.27 -35.75,-34.98 -79.66,-34.98 -58.83,0 -103.13,44.69 -103.13,109.84 0,69.96 50.64,135.87 131.78,135.87 23.85,0 36.11,-4.84 47.29,-9.32l0 -59.93 -56.2 2.97 29.77 -16.02 78.93 0 -9.67 9.3c-2.63,2.24 -2.99,3 -3.73,5.95 -0.39,3.36 -0.74,14.16 -0.74,17.89l0 45.44z"/>
   <path class="fil5" d="M1762.32 575.55c-12.29,-1.12 -14.86,-3.34 -14.86,-17.87l0 -210.72c0.07,-0.8 0.12,-1.62 0.2,-2.4 1.5,-13.02 5.22,-15.25 16.78,-21.96l-53.26 0 -27.93 13.4 28.47 0 0 0.17 -0.02 -0.14 0 229.84c0,7.43 -1.47,8.56 -10.04,19.72l65.9 0 13.77 -8.17c-6.32,-0.77 -12.66,-1.13 -19,-1.87z"/>
   <path class="fil5" d="M1879.06 468.78c7.02,-2.58 10.72,-4.8 10.72,-9.97 0,-14.78 -16.63,-31.8 -36.61,-31.8 -14.81,0 -42.51,11.47 -42.51,51.39 0,6.29 0.73,12.95 1.12,19.62l67.28 -29.23zm34.75 110.19c-4.05,2.22 -8.12,4.82 -12.17,6.66 -12.23,5.54 -24.79,7.03 -35.9,7.03 -11.81,0 -30.31,-0.76 -49.18,-14.43 -26.23,-18.49 -37.69,-50.3 -37.69,-78.01 0,-57.31 46.58,-85.39 84.67,-85.39 13.31,0 27,3.32 38.1,10.36 18.46,12.17 23.27,28.07 25.85,36.58l-86.86 35.14 -28.47 2.22c9.23,46.94 41.02,74.29 76.16,74.29 18.85,0 32.54,-6.64 45.1,-12.92l-19.6 18.48z"/>
   <polygon class="fil5" points="1949.49,417.34 1949.49,441.74 1946.53,441.74 1946.53,417.34 1938.46,417.34 1938.46,414.82 1957.56,414.82 1957.56,417.34 "/>
   <polygon class="fil5" points="1982.75,441.74 1982.75,417.13 1982.61,417.13 1975.09,441.74 1972.78,441.74 1965.2,417.13 1965.11,417.13 1965.11,441.74 1962.42,441.74 1962.42,414.82 1967.03,414.82 1973.89,436.59 1973.98,436.59 1980.74,414.82 1985.41,414.82 1985.41,441.74 "/>
   <path class="fil6" d="M882.52 225.73c-6.59,-19.88 -9.88,-30.63 -9.88,-32.26l-0.93 0c0,1.5 -3.4,12.26 -10.23,32.26l21.04 0zm26.71 32.66l-18.49 0c0,-2.54 -1.76,-9.74 -5.26,-21.62l-26.71 0c-3.62,11.68 -5.43,18.88 -5.43,21.62l-17.4 0c0,-1.5 4.5,-13.84 13.5,-37 9,-23.16 13.5,-35.91 13.5,-38.27l21.85 0c0,2.2 4.08,14.77 12.23,37.72 8.16,22.95 12.23,35.47 12.23,37.55z"/>
   <path class="fil6" d="M983.78 258.39l-14.29 0c0,-1.58 -5.3,-9.92 -15.89,-25.03 -11.1,-15.92 -17.42,-26.8 -18.96,-32.66l-0.93 0c0.96,8.44 1.44,16.07 1.44,22.89 0,9.52 0.27,21.12 0.81,34.8l-14.22 0c0.58,-11.94 0.86,-25.07 0.86,-39.37 0,-14.07 -0.28,-26.04 -0.86,-35.9l17.17 0c0,2.05 4.76,10.2 14.27,24.45 10.13,15.14 15.96,25.42 17.46,30.82l0.86 0c-0.92,-8.59 -1.38,-16.3 -1.38,-23.13 0,-10.44 -0.28,-21.16 -0.81,-32.14l14.46 0c-0.54,9.56 -0.81,21.53 -0.81,35.9 0,14.49 0.27,27.61 0.81,39.37z"/>
   <path class="fil6" d="M1051.78 220.65c0,-7.4 -2.15,-13.63 -6.47,-18.71 -4.31,-5.07 -10.91,-7.6 -19.77,-7.6 -1.65,0 -3.93,0.17 -6.82,0.52 0.39,7.71 0.58,15.76 0.58,24.17 0,9.21 0.19,18.35 0.57,27.4 2.51,0.5 5.01,0.75 7.52,0.75 8.29,0 14.42,-2.58 18.41,-7.72 3.99,-5.15 5.98,-11.42 5.98,-18.81zm15.78 -2.49c0,10.95 -3.51,20.5 -10.52,28.67 -7.01,8.17 -16.84,12.25 -29.48,12.25 -5.7,0 -13.57,-0.23 -23.59,-0.69 0.5,-11.64 0.76,-24.76 0.76,-39.37 0,-14.03 -0.25,-25.99 -0.76,-35.9l10.12 0c1.66,0 4.12,-0.06 7.4,-0.17 3.27,-0.12 5.41,-0.17 6.41,-0.17 13.91,0 24,3.46 30.27,10.4 6.26,6.93 9.39,15.26 9.39,24.97z"/>
   <path class="fil6" d="M1123.15 205.21c0,-7.67 -4.94,-11.51 -14.8,-11.51 -3.63,0 -6.83,0.27 -9.6,0.81 0.42,5.98 0.64,13.76 0.64,23.36 2.12,0.08 3.91,0.12 5.38,0.12 12.26,0 18.39,-4.25 18.39,-12.78zm21.67 53.18l-17.11 0c-4.47,-13.64 -7.9,-22.06 -10.29,-25.26 -2.39,-3.2 -6.24,-4.8 -11.56,-4.8 -2.24,0 -4.37,0.02 -6.42,0.06 0,9.91 0.18,19.9 0.53,30l-16.07 0c0.5,-11.64 0.75,-24.76 0.75,-39.37 0,-14.03 -0.25,-25.99 -0.75,-35.9l10 0c1.16,0 3.58,-0.06 7.26,-0.17 3.68,-0.12 7.08,-0.17 10.2,-0.17 17.69,0 26.54,6.05 26.54,18.15 0,9.6 -5.05,16.28 -15.15,20.06l0 0.87c3.89,1.08 7.31,4.11 10.24,9.11 2.93,4.99 6.87,14.13 11.85,27.43z"/>
   <path class="fil6" d="M1211.74 221.05c0,-8.06 -2.07,-14.59 -6.18,-19.6 -4.12,-5.01 -9.22,-7.52 -15.27,-7.52 -5.63,0 -10.4,2.53 -14.33,7.58 -3.93,5.05 -5.9,11.42 -5.9,19.14 0,8.01 2.07,14.53 6.21,19.56 4.15,5.03 9.23,7.55 15.24,7.55 5.62,0 10.4,-2.54 14.34,-7.61 3.92,-5.07 5.9,-11.44 5.9,-19.1zm15.95 -1.68c0,11.84 -3.62,21.65 -10.86,29.43 -7.25,7.78 -16.21,11.68 -26.88,11.68 -10.18,0 -18.69,-3.58 -25.55,-10.73 -6.86,-7.15 -10.29,-16.23 -10.29,-27.26 0,-11.83 3.62,-21.64 10.86,-29.42 7.25,-7.79 16.2,-11.68 26.89,-11.68 10.17,0 18.69,3.56 25.55,10.69 6.86,7.13 10.29,16.22 10.29,27.28z"/>
   <path class="fil6" d="M1260.38 258.39l-16.36 0c0.5,-11.94 0.76,-25.07 0.76,-39.37 0,-14.07 -0.25,-26.04 -0.76,-35.9l16.36 0c-0.5,9.72 -0.76,21.68 -0.76,35.9 0,14.53 0.25,27.66 0.76,39.37z"/>
   <path class="fil6" d="M1328.39 220.65c0,-7.4 -2.17,-13.63 -6.47,-18.71 -4.33,-5.07 -10.91,-7.6 -19.77,-7.6 -1.66,0 -3.94,0.17 -6.82,0.52 0.39,7.71 0.58,15.76 0.58,24.17 0,9.21 0.19,18.35 0.58,27.4 2.5,0.5 5.01,0.75 7.52,0.75 8.28,0 14.42,-2.58 18.41,-7.72 3.98,-5.15 5.98,-11.42 5.98,-18.81zm15.78 -2.49c0,10.95 -3.51,20.5 -10.52,28.67 -7.01,8.17 -16.85,12.25 -29.48,12.25 -5.71,0 -13.57,-0.23 -23.59,-0.69 0.5,-11.64 0.76,-24.76 0.76,-39.37 0,-14.03 -0.25,-25.99 -0.76,-35.9l10.11 0c1.66,0 4.12,-0.06 7.4,-0.17 3.28,-0.12 5.42,-0.17 6.41,-0.17 13.91,0 24.01,3.46 30.27,10.4 6.26,6.93 9.39,15.26 9.39,24.97z"/>
   <path class="fil6" d="M1428.62 225.73c-6.59,-19.88 -9.89,-30.63 -9.89,-32.26l-0.92 0c0,1.5 -3.41,12.26 -10.23,32.26l21.04 0zm26.71 32.66l-18.49 0c0,-2.54 -1.76,-9.74 -5.27,-21.62l-26.71 0c-3.62,11.68 -5.43,18.88 -5.43,21.62l-17.4 0c0,-1.5 4.5,-13.84 13.5,-37 9,-23.16 13.5,-35.91 13.5,-38.27l21.85 0c0,2.2 4.08,14.77 12.23,37.72 8.15,22.95 12.23,35.47 12.23,37.55z"/>
   <path class="fil6" d="M1507.85 206.02c0,-8.24 -5.48,-12.37 -16.42,-12.37 -2.74,0 -5.63,0.29 -8.67,0.87 0.42,7.29 0.64,15.53 0.64,24.74 0.96,0.08 2.08,0.11 3.35,0.11 14.07,0 21.1,-4.45 21.1,-13.35zm14.91 -3.18c0,9.21 -3.42,16.02 -10.26,20.41 -6.84,4.4 -15.23,6.59 -25.17,6.59 -1.81,0 -3.1,-0.04 -3.87,-0.12 0,7.25 0.21,16.8 0.63,28.67l-16.25 0c0.5,-11.14 0.76,-24.25 0.76,-39.37 0,-13.87 -0.25,-25.84 -0.76,-35.9l10.07 0c1.42,0 4.16,-0.06 8.2,-0.17 4.05,-0.12 7.55,-0.17 10.52,-0.17 7.32,0 13.51,1.65 18.55,4.97 5.06,3.32 7.58,8.34 7.58,15.09z"/>
   <path class="fil6" d="M1577.18 206.02c0,-8.24 -5.47,-12.37 -16.42,-12.37 -2.74,0 -5.63,0.29 -8.67,0.87 0.42,7.29 0.63,15.53 0.63,24.74 0.97,0.08 2.08,0.11 3.36,0.11 14.06,0 21.1,-4.45 21.1,-13.35zm14.91 -3.18c0,9.21 -3.42,16.02 -10.26,20.41 -6.84,4.4 -15.24,6.59 -25.18,6.59 -1.81,0 -3.1,-0.04 -3.87,-0.12 0,7.25 0.21,16.8 0.64,28.67l-16.25 0c0.5,-11.14 0.76,-24.25 0.76,-39.37 0,-13.87 -0.25,-25.84 -0.76,-35.9l10.06 0c1.43,0 4.17,-0.06 8.21,-0.17 4.05,-0.12 7.55,-0.17 10.52,-0.17 7.32,0 13.51,1.65 18.55,4.97 5.05,3.32 7.57,8.34 7.57,15.09z"/>
   <path class="fil6" d="M1689.5 221.05c0,-8.06 -2.06,-14.59 -6.19,-19.6 -4.12,-5.01 -9.21,-7.52 -15.26,-7.52 -5.62,0 -10.4,2.53 -14.34,7.58 -3.92,5.05 -5.89,11.42 -5.89,19.14 0,8.01 2.07,14.53 6.21,19.56 4.14,5.03 9.22,7.55 15.23,7.55 5.63,0 10.4,-2.54 14.33,-7.61 3.94,-5.07 5.9,-11.44 5.9,-19.1zm15.96 -1.68c0,11.84 -3.62,21.65 -10.88,29.43 -7.25,7.78 -16.2,11.68 -26.88,11.68 -10.17,0 -18.69,-3.58 -25.55,-10.73 -6.85,-7.15 -10.29,-16.23 -10.29,-27.26 0,-11.83 3.62,-21.64 10.86,-29.42 7.25,-7.79 16.21,-11.68 26.89,-11.68 10.17,0 18.69,3.56 25.55,10.69 6.86,7.13 10.29,16.22 10.29,27.28z"/>
   <path class="fil6" d="M1783.82 258.39l-14.28 0c0,-1.58 -5.29,-9.92 -15.9,-25.03 -11.1,-15.92 -17.42,-26.8 -18.96,-32.66l-0.92 0c0.96,8.44 1.44,16.07 1.44,22.89 0,9.52 0.27,21.12 0.81,34.8l-14.22 0c0.57,-11.94 0.86,-25.07 0.86,-39.37 0,-14.07 -0.29,-26.04 -0.86,-35.9l17.17 0c0,2.05 4.76,10.2 14.28,24.45 10.13,15.14 15.95,25.42 17.46,30.82l0.87 0c-0.93,-8.59 -1.39,-16.3 -1.39,-23.13 0,-10.44 -0.27,-21.16 -0.81,-32.14l14.45 0c-0.54,9.56 -0.81,21.53 -0.81,35.9 0,14.49 0.27,27.61 0.81,39.37z"/>
  </g>
 </g>
</svg>
