<?xml version="1.0" encoding="UTF-8"?>
<!DOCTYPE svg PUBLIC "-//W3C//DTD SVG 1.1//EN" "http://www.w3.org/Graphics/SVG/1.1/DTD/svg11.dtd">
<!-- Creator: CorelDRAW -->
<svg xmlns="http://www.w3.org/2000/svg" xml:space="preserve" width="49.9984mm" height="10mm" version="1.1" style="shape-rendering:geometricPrecision; text-rendering:geometricPrecision; image-rendering:optimizeQuality; fill-rule:evenodd; clip-rule:evenodd"
viewBox="0 0 421.47 84.3"
 xmlns:xlink="http://www.w3.org/1999/xlink">
 <defs>
  <style type="text/css">
   <![CDATA[
    .str0 {stroke:#4D4D4D;stroke-width:1.69;stroke-miterlimit:22.9256}
    .fil1 {fill:none;fill-rule:nonzero}
    .fil2 {fill:black;fill-rule:nonzero}
    .fil3 {fill:#4D4D4D;fill-rule:nonzero}
    .fil0 {fill:#E6E6E6;fill-rule:nonzero}
   ]]>
  </style>
   <mask id="id0">
  <linearGradient id="id1" gradientUnits="userSpaceOnUse" x1="218.02" y1="14.17" x2="12.34" y2="14.16">
   <stop offset="0" style="stop-opacity:1; stop-color:white"/>
   <stop offset="1" style="stop-opacity:0; stop-color:white"/>
  </linearGradient>
    <rect style="fill:url(#id1)" x="-1.49" y="-1.49" width="424.44" height="87.27"/>
   </mask>
 </defs>
 <g id="Capa_x0020_1">
  <metadata id="CorelCorpID_0Corel-Layer"/>
  <path class="fil0" style="mask:url(#id0)" d="M379.32 84.3l-337.17 0c-23.28,0 -42.14,-18.87 -42.14,-42.15 0,-23.28 18.87,-42.15 42.14,-42.15l337.17 0c23.28,0 42.15,18.87 42.15,42.15 0,23.28 -18.87,42.15 -42.15,42.15z"/>
  <line class="fil1 str0" x1="104.22" y1="12.46" x2="104.22" y2= "71.84" />
  <path class="fil2" d="M56.81 42.54l0 0c-7.38,0 -13.36,-5.18 -13.36,-11.56l0 -3.95c0,-6.39 5.98,-11.56 13.36,-11.56 7.38,0 13.37,5.17 13.37,11.56l0 3.95c0,6.38 -5.99,11.56 -13.37,11.56z"/>
  <path class="fil2" d="M70.26 68.83l-26.26 0c-3.59,0 -6.5,-2.51 -6.5,-5.62l0 -11.79c0,-3.97 3.72,-7.19 8.31,-7.19l22.65 0c4.59,0 8.31,3.22 8.31,7.19l0 11.79c0,3.11 -2.91,5.62 -6.5,5.62z"/>
  <polygon class="fil3" points="168.55,56.39 172.85,56.39 172.85,28.07 168.55,28.07 "/>
  <path id="1" class="fil3" d="M179.01 56.39l4.05 0 0 -16.7c1.45,-0.7 3.47,-1.32 5.25,-1.32 3.18,0 3.84,0.95 3.84,3.27l0 14.76 4.09 0 0 -15.71c0,-4.09 -1.98,-5.79 -6.08,-5.79 -2.56,0 -5.29,0.99 -7.07,2.23l-0.17 0 0 -1.82 -3.93 0 0 21.08z"/>
  <path id="2" class="fil3" d="M201.7 56.39l4.05 0 0 -21.08 -4.05 0 0 21.08zm-0.04 -25.01l4.13 0 0 -3.97 -4.13 0 0 3.97z"/>
  <path id="3" class="fil3" d="M220.02 56.76c2.94,0 4.88,-0.74 6.28,-1.65l0 -3.1c-1.12,0.54 -2.98,1.41 -5.66,1.41 -4.13,0 -6.28,-2.15 -6.28,-7.23l0 -1.08c0,-4.42 2.27,-6.78 5.87,-6.78 2.69,0 3.97,0.5 5.83,1.28l0 -3.35c-1.41,-0.83 -3.02,-1.36 -5.79,-1.36 -5.71,0 -10.13,3.39 -10.13,10.75l0 0.7c0,6.99 3.84,10.42 9.88,10.42z"/>
  <path id="4" class="fil3" d="M230.23 56.39l4.05 0 0 -21.08 -4.05 0 0 21.08zm-0.04 -25.01l4.13 0 0 -3.97 -4.13 0 0 3.97z"/>
  <path id="5" class="fil3" d="M245.15 56.76c2.73,0 4.47,-0.91 5.46,-2.15l0.25 0 0.37 1.78 3.35 0 0 -15.26c0,-4.26 -2.77,-6.24 -7.52,-6.24 -2.6,0 -4.75,0.41 -6.7,1.2l0 2.85c1.28,-0.29 3.02,-0.62 5.09,-0.62 3.72,0 5.04,0.7 5.04,3.84l0 1.82 -5.29 0.62c-4.09,0.54 -6.57,2.4 -6.57,6.16 0,4.09 2.73,6 6.53,6zm1.07 -2.98c-2.11,0 -3.47,-1.03 -3.47,-3.18 0,-2.19 1.12,-3.1 3.35,-3.35l4.38 -0.46 0 5.62c-0.83,0.79 -2.52,1.36 -4.26,1.36z"/>
  <path id="6" class="fil3" d="M259.87 56.39l4.05 0 0 -16.12c1.45,-0.95 3.39,-1.53 5.37,-1.53 0.41,0 1.12,0.04 1.65,0.12l0 -3.64c-0.21,-0.12 -0.83,-0.17 -1.32,-0.17 -2.27,0 -4.42,1.2 -5.66,2.6l-0.17 0 0 -2.36 -3.93 0 0 21.08z"/>
  <path id="7" class="fil3" d="M292.28 56.89c6.74,0 9.8,-3.31 9.8,-8.48 0,-4.88 -2.69,-6.74 -6.95,-8.1l-2.81 -0.87c-2.94,-0.91 -3.8,-1.99 -3.8,-4.42 0,-2.52 1.78,-3.89 4.92,-3.89 3.1,0 5.42,0.74 7.15,1.49l0 -3.47c-1.57,-0.79 -3.56,-1.57 -7.15,-1.57 -6.08,0 -9.14,3.23 -9.14,7.81 0,4.59 2.4,6.66 6.28,7.86l2.77 0.91c3.23,1.03 4.34,2.11 4.34,4.59 0,2.81 -1.7,4.59 -5.71,4.59 -3.02,0 -5.79,-0.74 -7.98,-1.78l0 3.47c1.94,1.07 4.67,1.86 8.27,1.86z"/>
  <path id="8" class="fil3" d="M315.39 56.76c3.51,0 5.95,-1.08 7.28,-2.03l0 -2.85c-1.94,0.87 -3.76,1.53 -6.53,1.53 -4.13,0 -6.49,-1.61 -6.78,-6.45l13.97 0 0 -1.98c0,-6.66 -2.77,-10.09 -8.72,-10.09 -5.08,0 -9.43,3.43 -9.43,10.67l0 0.54c0,6.61 3.39,10.67 10.21,10.67zm-0.95 -18.65c3.06,0 4.63,1.61 4.63,5.87l-9.72 0c0.33,-4.71 2.85,-5.87 5.08,-5.87z"/>
  <path id="9" class="fil3" d="M333.05 56.72c4.8,0 7.77,-2.15 7.77,-6.33 0,-3.76 -1.65,-5.25 -5.79,-6.24l-1.98 -0.5c-2.11,-0.58 -2.94,-1.2 -2.94,-2.81 0,-1.82 1.32,-2.6 3.97,-2.6 2.31,0 4.46,0.58 5.58,1.03l0 -3.14c-1.24,-0.62 -3.02,-1.24 -5.91,-1.24 -5.13,0 -7.52,2.52 -7.52,6.28 0,3.72 2.15,5.25 5.29,6l1.94 0.54c2.56,0.58 3.35,1.36 3.35,2.98 0,1.78 -1.32,2.81 -4.34,2.81 -2.98,0 -4.55,-0.66 -6.28,-1.32l0 3.06c1.69,1.03 4.13,1.49 6.86,1.49z"/>
  <path id="10" class="fil3" d="M345.12 56.39l4.05 0 0 -21.08 -4.05 0 0 21.08zm-0.04 -25.01l4.13 0 0 -3.97 -4.13 0 0 3.97z"/>
  <path id="11" class="fil3" d="M363.35 56.76c5.75,0 9.76,-3.97 9.76,-10.67l0 -0.62c0,-6.66 -3.6,-10.58 -9.72,-10.58 -5.87,0 -9.84,4.01 -9.84,10.71l0 0.7c0,6.57 3.55,10.46 9.8,10.46zm0.04 -3.18c-3.14,0 -5.66,-1.65 -5.66,-7.23l0 -1.12c0,-4.63 2.03,-7.07 5.58,-7.07 3.06,0 5.54,1.65 5.54,7.24l0 1.12c0,4.63 -2.03,7.07 -5.46,7.07z"/>
  <path id="12" class="fil3" d="M377.28 56.39l4.05 0 0 -16.7c1.45,-0.7 3.47,-1.32 5.25,-1.32 3.18,0 3.84,0.95 3.84,3.27l0 14.76 4.09 0 0 -15.71c0,-4.09 -1.98,-5.79 -6.08,-5.79 -2.56,0 -5.29,0.99 -7.07,2.23l-0.17 0 0 -1.82 -3.93 0 0 21.08z"/>
 </g>
</svg>
