<?xml version="1.0" encoding="UTF-8"?>
<!DOCTYPE svg PUBLIC "-//W3C//DTD SVG 1.1//EN" "http://www.w3.org/Graphics/SVG/1.1/DTD/svg11.dtd">
<!-- Creator: CorelDRAW -->
<svg xmlns="http://www.w3.org/2000/svg" xml:space="preserve" width="185.362mm" height="38.2711mm" version="1.1" style="shape-rendering:geometricPrecision; text-rendering:geometricPrecision; image-rendering:optimizeQuality; fill-rule:evenodd; clip-rule:evenodd"
viewBox="0 0 16587.57 3424.79"
 xmlns:xlink="http://www.w3.org/1999/xlink">
 <defs>
  <style type="text/css">
   <![CDATA[
    .fil0 {fill:url(#id0);fill-rule:nonzero}
   ]]>
  </style>
  <linearGradient id="id0" gradientUnits="userSpaceOnUse" x1="-0" y1="1712.4" x2="16587.57" y2="1712.4">
   <stop offset="0" style="stop-opacity:1; stop-color:#0C6E25"/>
   <stop offset="0.501961" style="stop-opacity:1; stop-color:#001DFA"/>
   <stop offset="1" style="stop-opacity:1; stop-color:#810085"/>
  </linearGradient>
 </defs>
 <g id="Capa_x0020_1">
  <metadata id="CorelCorpID_0Corel-Layer"/>
  <path class="fil0" d="M5888.05 2029.1l-366.87 626.92 -104.49 0 -364.55 -626.92 0 1316.54 -176.46 0 0 -1599.82 202.01 0 392.4 712.84 404.02 -712.84 192.72 0 0 1599.82 -178.79 0 0 -1316.54zm-1838.47 260.95c0,-274.67 -33.63,-553.73 -107.34,-819.04 -55.29,-198.96 -133.19,-390.26 -236.72,-565.71 -77.67,-131.57 -169.8,-254.22 -277.49,-364.1 -161.54,-164.86 -358.36,-300.86 -591.95,-394.89 -233.61,-94.15 -503.58,-146.34 -811.27,-146.3 -358.55,-0.08 -667.18,73.46 -926.69,202.86 -194.67,96.95 -361.41,225.11 -501.13,375.21 -209.72,225.22 -358.83,499.3 -455.57,793.5 -96.75,294.32 -141.38,609.08 -141.42,918.47 0,21.9 8.11,41.92 21.49,57.19l0 484.8c0,46.63 37.8,84.45 84.44,84.45 25.83,0 48.94,-11.61 64.44,-29.87l0 20.82c0,151.35 73.74,245.48 184.34,245.48l141.47 0 0 62.4c0,115.67 93.77,209.46 209.46,209.46l147.89 0c115.69,0 209.48,-93.79 209.48,-209.46l0 -1361.58c0,-115.69 -93.79,-209.48 -209.48,-209.48l-147.89 0c-115.69,0 -209.46,93.79 -209.46,209.48l0 21.32 -217.17 0c-32.33,0 -61.35,14.11 -81.26,36.53 17.22,-133.57 43.83,-265.61 80.38,-393.49 53.12,-186.06 127.19,-363.27 223.48,-524.04 101.77,-169.87 227.96,-321.27 381.08,-446.46 -1.31,25.92 4.87,52.47 19.27,76.36 38.5,63.91 121.53,84.5 185.46,45.98 273.92,-165.01 593.96,-259.94 937.38,-259.98 343.36,0.04 663.45,94.97 937.33,259.98 63.94,38.52 146.97,17.93 185.49,-45.98 16.22,-26.91 21.97,-57.23 18.39,-86.17 60.88,48.88 117.41,101.85 169.82,158.46 188.27,203.42 323.43,454.53 411.45,729.01 50.79,158.32 85.8,324.32 106.31,492.75 -19.85,-26.1 -51.22,-42.95 -86.55,-42.95l-220.23 0c-9.99,0 -19.66,1.36 -28.86,3.88l0 -25.21c0,-115.69 -93.79,-209.48 -209.46,-209.48l-147.89 0c-115.69,0 -209.46,93.79 -209.46,209.48l0 1361.58c0,115.67 93.77,209.46 209.46,209.46l147.89 0c115.67,0 209.46,-93.79 209.46,-209.46l0 -62.4 173.39 0c110.62,0 184.36,-94.13 184.36,-245.48l0 -20.79c15.48,18.25 38.6,29.84 64.42,29.84 46.62,0 84.47,-37.82 84.47,-84.45l0 -481.04c15.45,-15.68 24.98,-37.19 24.98,-60.95zm2613.99 1057.91c-69.66,0 -130.41,-13.15 -182.27,-39.47 -51.86,-26.31 -94.81,-61.53 -128.87,-105.64 -34.05,-44.12 -59.2,-95.98 -75.46,-155.57 -16.26,-59.6 -24.39,-121.9 -24.39,-186.91 0,-55.73 10.45,-108.75 31.35,-159.06 20.9,-50.31 49.93,-94.81 87.07,-133.52 37.16,-38.69 80.49,-69.27 130.03,-91.72 49.53,-22.44 103.71,-33.67 162.53,-33.67l336.69 0 0 -276.31c0,-27.87 -5.03,-56.5 -15.1,-85.92 -10.06,-29.41 -24.76,-55.72 -44.12,-78.95 -19.35,-23.21 -42.95,-42.57 -70.82,-58.04 -27.86,-15.48 -60.37,-23.22 -97.51,-23.22l-376.16 0 0 -174.15 376.16 0c57.27,0 111.06,11.62 161.37,34.84 50.31,23.21 93.65,53.79 130.03,91.72 36.38,37.92 65.01,82.43 85.92,133.51 20.9,51.09 31.35,104.49 31.35,160.22l0 761.59c0,55.73 -10.45,109.13 -31.35,160.22 -20.9,51.08 -49.54,95.58 -85.92,133.51 -36.38,37.92 -79.72,68.5 -130.03,91.72 -50.31,23.22 -104.1,34.83 -161.37,34.83l-109.14 0zm0 -736.05c-37.15,0 -69.66,8.13 -97.51,24.39 -27.87,16.25 -51.47,36.38 -70.82,60.37 -19.35,23.99 -34.06,50.69 -44.12,80.11 -10.06,29.41 -15.1,57.27 -15.1,83.59l0 67.33c0,27.87 5.04,56.5 15.1,85.92 10.06,29.41 24.77,55.72 44.12,78.95 19.35,23.21 42.95,42.57 70.82,58.04 27.86,15.48 60.37,23.22 97.51,23.22l109.14 0c37.15,0 69.66,-7.74 97.51,-23.22 27.87,-15.47 51.47,-34.83 70.82,-58.04 19.36,-23.22 34.06,-49.54 44.12,-78.95 10.07,-29.41 15.1,-58.05 15.1,-85.92l0 -315.78 -336.69 0zm1137.75 736.05c-54.18,0 -104.87,-9.67 -152.08,-29.02 -47.21,-19.35 -88.62,-45.67 -124.23,-78.95 -35.6,-33.28 -65.01,-71.98 -88.23,-116.09 -23.21,-44.12 -37.92,-91.72 -44.12,-142.8l185.76 0c4.64,23.22 13.15,46.44 25.54,69.66 12.39,23.22 27.87,44.12 46.44,62.69 18.57,18.58 40.24,33.67 65.01,45.28 24.76,11.61 53.41,17.41 85.91,17.41l109.13 0c49.54,0 89.01,-10.84 118.42,-32.51 29.41,-21.67 52.24,-47.6 68.5,-77.78 16.25,-30.18 27.09,-62.31 32.5,-96.36 5.42,-34.06 8.13,-63.47 8.13,-88.23 0,-63.46 -9.67,-113 -29.02,-148.6 -19.35,-35.61 -44.89,-62.31 -76.62,-80.11 -31.74,-17.8 -67.72,-29.02 -107.98,-33.67 -40.24,-4.64 -81.26,-6.97 -123.06,-6.97 -61.92,0 -118.03,-11.61 -168.34,-34.83 -50.31,-23.22 -93.66,-54.18 -130.03,-92.88 -36.38,-38.69 -64.24,-83.98 -83.59,-135.83 -19.35,-51.86 -29.02,-107.2 -29.02,-166.02 0,-57.27 9.67,-112.61 29.02,-166.02 19.35,-53.41 47.21,-99.84 83.59,-139.31 36.38,-39.47 79.72,-71.21 130.03,-95.21 50.3,-23.99 106.42,-35.99 168.34,-35.99l109.13 0c54.18,0 104.49,9.68 150.93,29.03 46.44,19.35 87.85,46.05 124.23,80.11 36.38,34.05 66.18,73.14 89.39,117.26 23.22,44.12 37.92,91.72 44.12,142.8l-185.75 0c-4.64,-23.21 -13.16,-46.44 -25.55,-69.66 -12.38,-23.21 -27.86,-44.12 -46.44,-62.69 -18.58,-18.58 -40.25,-33.67 -65.01,-45.28 -24.77,-11.62 -53.41,-17.41 -85.92,-17.41l-109.13 0c-44.89,0 -81.66,8.9 -110.29,26.7 -28.64,17.8 -51.86,40.24 -69.66,67.33 -17.8,27.1 -30.18,56.5 -37.15,88.23 -6.97,31.73 -10.45,60.76 -10.45,87.07 0,26.32 4.64,54.57 13.93,84.75 9.29,30.18 23.22,57.67 41.79,82.43 18.58,24.77 42.18,45.28 70.82,61.53 28.64,16.26 62.31,24.39 101,24.39l109.13 0c61.93,0 118.42,11.99 169.51,35.99 51.08,23.99 94.43,56.11 130.03,96.36 35.61,40.24 63.08,87.07 82.43,140.48 19.36,53.4 29.03,109.51 29.03,168.34 0,63.46 -8.9,123.06 -26.7,178.8 -17.8,55.72 -44.12,104.87 -78.95,147.44 -34.83,42.57 -77.79,76.23 -128.87,101 -51.08,24.77 -109.9,37.15 -176.47,37.15l-109.13 0zm914.85 -417.94c0,30.95 5.42,61.14 16.26,90.55 10.83,29.41 26.31,55.34 46.44,77.78 20.13,22.45 44.12,40.64 71.98,54.57 27.86,13.93 58.82,20.9 92.87,20.9l53.41 0 0 171.83 -53.41 0c-55.72,0 -108.35,-10.84 -157.89,-32.51 -49.53,-21.66 -93.26,-51.08 -131.19,-88.23 -37.92,-37.16 -67.72,-80.89 -89.39,-131.2 -21.67,-50.3 -32.51,-104.87 -32.51,-163.69l0 -1753.07 183.43 0 0 599.07 471.36 0 0 167.18 -471.36 0 0 986.82zm803.4 -2.33c0,60.37 11.22,106.81 33.67,139.31 22.44,32.51 50.31,56.9 83.59,73.15 33.28,16.25 69.66,25.92 109.13,29.02 39.47,3.1 76.23,4.64 110.29,4.64l262.38 0 0 174.14 -139.31 0 -269.35 -2.32c-52.63,0 -101.77,-11.61 -147.44,-34.83 -45.67,-23.22 -85.14,-54.18 -118.42,-92.88 -33.28,-38.69 -59.6,-83.21 -78.95,-133.51 -19.35,-50.31 -29.02,-102.55 -29.02,-156.74l0 -761.59c0,-55.73 10.44,-109.13 31.34,-160.22 20.9,-51.08 49.54,-95.58 85.92,-133.51 36.38,-37.92 79.72,-68.5 130.03,-91.72 50.31,-23.22 104.88,-34.84 163.7,-34.84l109.13 0c57.27,0 111.06,11.62 161.37,34.84 50.31,23.21 93.66,53.79 130.03,91.72 36.38,37.92 65.01,82.43 85.91,133.51 20.9,51.09 31.35,104.49 31.35,160.22l0 445.81 -745.34 0 0 315.78zm564.23 -761.59c0,-27.87 -5.03,-56.5 -15.09,-85.92 -10.07,-29.41 -24.77,-55.72 -44.12,-78.95 -19.36,-23.21 -42.96,-42.57 -70.82,-58.04 -27.87,-15.48 -60.37,-23.22 -97.52,-23.22l-109.13 0c-37.16,0 -70.04,7.74 -98.69,23.22 -28.64,15.47 -52.24,34.83 -70.81,58.04 -18.58,23.22 -32.9,49.54 -42.96,78.95 -10.06,29.41 -15.09,58.05 -15.09,85.92l0 276.31 564.23 0 0 -276.31zm831.25 -246.13c-37.15,0 -69.66,7.35 -97.51,22.06 -27.87,14.7 -51.47,33.67 -70.82,56.89 -19.36,23.22 -34.06,49.15 -44.12,77.78 -10.07,28.64 -15.1,56.89 -15.1,84.75l0 1186.51 -190.39 0 0 -1181.86c0,-55.73 10.83,-109.13 32.5,-160.22 21.67,-51.08 51.09,-95.58 88.23,-133.51 37.16,-37.92 81.27,-68.5 132.35,-91.72 51.08,-23.22 106.03,-34.84 164.85,-34.84l380.81 0 0 174.15 -380.81 0zm520.12 1425.67l0 -1599.82 520.11 0c55.72,0 108.75,10.84 159.06,32.51 50.31,21.67 94.03,51.08 131.19,88.23 37.15,37.16 66.56,81.26 88.23,132.35 21.67,51.08 32.5,105.26 32.5,162.54l0 34.83c0,55.72 -12.38,110.29 -37.15,163.7 -24.77,53.4 -64.24,109.51 -118.42,168.34 54.18,55.73 93.65,109.91 118.42,162.54 24.77,52.64 37.15,107.58 37.15,164.86l0 74.3c0,58.82 -10.83,113.39 -32.5,163.69 -21.67,50.31 -51.09,94.04 -88.23,131.2 -37.16,37.15 -80.88,66.56 -131.19,88.23 -50.31,21.67 -103.33,32.51 -159.06,32.51l-520.11 0zm749.99 -487.61c0,-30.96 -5.81,-61.53 -17.41,-91.72 -11.62,-30.18 -27.48,-56.89 -47.61,-80.11 -20.12,-23.21 -44.11,-41.79 -71.97,-55.72 -27.87,-13.93 -58.05,-20.9 -90.55,-20.9l-336.69 0 0 561.91 334.36 0c32.51,0 63.08,-6.58 91.72,-19.74 28.64,-13.15 53.02,-30.95 73.14,-53.41 20.13,-22.44 35.99,-47.98 47.61,-76.62 11.61,-28.64 17.41,-59.21 17.41,-91.72l0 -71.98zm0 -696.58c0,-32.51 -5.81,-63.46 -17.41,-92.88 -11.62,-29.41 -27.48,-55.34 -47.61,-77.78 -20.12,-22.45 -44.11,-40.25 -71.97,-53.41 -27.87,-13.15 -58.82,-19.74 -92.88,-19.74l-334.36 0 0 522.44 334.36 0c34.06,0 65.01,-6.96 92.88,-20.9 27.87,-13.93 51.86,-32.12 71.97,-54.56 20.13,-22.45 35.99,-48.38 47.61,-77.79 11.61,-29.41 17.41,-59.6 17.41,-90.55l0 -34.83zm596.74 766.24c0,60.37 11.22,106.81 33.67,139.31 22.44,32.51 50.31,56.9 83.59,73.15 33.28,16.25 69.66,25.92 109.13,29.02 39.47,3.1 76.23,4.64 110.29,4.64l262.38 0 0 174.14 -139.31 0 -269.35 -2.32c-52.63,0 -101.77,-11.61 -147.44,-34.83 -45.67,-23.22 -85.14,-54.18 -118.42,-92.88 -33.28,-38.69 -59.6,-83.21 -78.95,-133.51 -19.35,-50.31 -29.02,-102.55 -29.02,-156.74l0 -761.59c0,-55.73 10.44,-109.13 31.34,-160.22 20.9,-51.08 49.54,-95.58 85.92,-133.51 36.38,-37.92 79.72,-68.5 130.03,-91.72 50.31,-23.22 104.88,-34.84 163.7,-34.84l109.13 0c57.27,0 111.06,11.62 161.37,34.84 50.31,23.21 93.66,53.79 130.03,91.72 36.38,37.92 65.01,82.43 85.91,133.51 20.9,51.09 31.35,104.49 31.35,160.22l0 445.81 -745.34 0 0 315.78zm564.23 -761.59c0,-27.87 -5.03,-56.5 -15.09,-85.92 -10.07,-29.41 -24.77,-55.72 -44.12,-78.95 -19.36,-23.21 -42.96,-42.57 -70.82,-58.04 -27.87,-15.48 -60.37,-23.22 -97.52,-23.22l-109.13 0c-37.16,0 -70.04,7.74 -98.69,23.22 -28.64,15.47 -52.24,34.83 -70.81,58.04 -18.58,23.22 -32.9,49.54 -42.96,78.95 -10.06,29.41 -15.09,58.05 -15.09,85.92l0 276.31 564.23 0 0 -276.31zm777.84 1181.86c-69.66,0 -130.41,-13.15 -182.27,-39.47 -51.86,-26.31 -94.81,-61.53 -128.87,-105.64 -34.05,-44.12 -59.2,-95.98 -75.46,-155.57 -16.26,-59.6 -24.39,-121.9 -24.39,-186.91 0,-55.73 10.45,-108.75 31.35,-159.06 20.9,-50.31 49.93,-94.81 87.07,-133.52 37.16,-38.69 80.49,-69.27 130.03,-91.72 49.53,-22.44 103.71,-33.67 162.53,-33.67l336.7 0 0 -276.31c0,-27.87 -5.03,-56.5 -15.1,-85.92 -10.06,-29.41 -24.76,-55.72 -44.12,-78.95 -19.35,-23.21 -42.95,-42.57 -70.82,-58.04 -27.86,-15.48 -60.38,-23.22 -97.52,-23.22l-376.16 0 0 -174.15 376.16 0c57.28,0 111.07,11.62 161.38,34.84 50.31,23.21 93.65,53.79 130.03,91.72 36.38,37.92 65.01,82.43 85.92,133.51 20.9,51.09 31.35,104.49 31.35,160.22l0 761.59c0,55.73 -10.45,109.13 -31.35,160.22 -20.9,51.08 -49.54,95.58 -85.92,133.51 -36.38,37.92 -79.72,68.5 -130.03,91.72 -50.31,23.22 -104.1,34.83 -161.38,34.83l-109.14 0zm0 -736.05c-37.15,0 -69.66,8.13 -97.51,24.39 -27.87,16.25 -51.47,36.38 -70.82,60.37 -19.35,23.99 -34.06,50.69 -44.12,80.11 -10.06,29.41 -15.1,57.27 -15.1,83.59l0 67.33c0,27.87 5.04,56.5 15.1,85.92 10.06,29.41 24.77,55.72 44.12,78.95 19.35,23.21 42.95,42.57 70.82,58.04 27.86,15.48 60.37,23.22 97.51,23.22l109.14 0c37.15,0 69.67,-7.74 97.52,-23.22 27.87,-15.47 51.47,-34.83 70.82,-58.04 19.36,-23.22 34.06,-49.54 44.12,-78.95 10.07,-29.41 15.1,-58.05 15.1,-85.92l0 -315.78 -336.7 0zm935.75 318.11c0,30.95 5.42,61.14 16.26,90.55 10.83,29.41 26.31,55.34 46.44,77.78 20.13,22.45 44.12,40.64 71.98,54.57 27.86,13.93 58.82,20.9 92.87,20.9l53.41 0 0 171.83 -53.41 0c-55.72,0 -108.35,-10.84 -157.89,-32.51 -49.53,-21.66 -93.26,-51.08 -131.19,-88.23 -37.92,-37.16 -67.72,-80.89 -89.39,-131.2 -21.67,-50.3 -32.51,-104.87 -32.51,-163.69l0 -1753.07 183.43 0 0 599.07 471.36 0 0 167.18 -471.36 0 0 986.82zm1007.72 417.94c-54.18,0 -104.87,-9.67 -152.08,-29.02 -47.21,-19.35 -88.62,-45.67 -124.23,-78.95 -35.6,-33.28 -65.01,-71.98 -88.23,-116.09 -23.21,-44.12 -37.92,-91.72 -44.12,-142.8l185.76 0c4.64,23.22 13.15,46.44 25.54,69.66 12.39,23.22 27.87,44.12 46.44,62.69 18.57,18.58 40.24,33.67 65.01,45.28 24.76,11.61 53.41,17.41 85.91,17.41l109.13 0c49.54,0 89.01,-10.84 118.42,-32.51 29.41,-21.67 52.24,-47.6 68.5,-77.78 16.25,-30.18 27.09,-62.31 32.5,-96.36 5.42,-34.06 8.13,-63.47 8.13,-88.23 0,-63.46 -9.67,-113 -29.02,-148.6 -19.35,-35.61 -44.89,-62.31 -76.62,-80.11 -31.74,-17.8 -67.72,-29.02 -107.98,-33.67 -40.24,-4.64 -81.26,-6.97 -123.06,-6.97 -61.92,0 -118.03,-11.61 -168.34,-34.83 -50.31,-23.22 -93.66,-54.18 -130.03,-92.88 -36.38,-38.69 -64.24,-83.98 -83.59,-135.83 -19.35,-51.86 -29.02,-107.2 -29.02,-166.02 0,-57.27 9.67,-112.61 29.02,-166.02 19.35,-53.41 47.21,-99.84 83.59,-139.31 36.38,-39.47 79.72,-71.21 130.03,-95.21 50.3,-23.99 106.42,-35.99 168.34,-35.99l109.13 0c54.18,0 104.49,9.68 150.93,29.03 46.44,19.35 87.85,46.05 124.23,80.11 36.38,34.05 66.18,73.14 89.39,117.26 23.22,44.12 37.92,91.72 44.12,142.8l-185.75 0c-4.64,-23.21 -13.16,-46.44 -25.55,-69.66 -12.38,-23.21 -27.86,-44.12 -46.44,-62.69 -18.58,-18.58 -40.25,-33.67 -65.01,-45.28 -24.77,-11.62 -53.41,-17.41 -85.92,-17.41l-109.13 0c-44.89,0 -81.66,8.9 -110.29,26.7 -28.64,17.8 -51.86,40.24 -69.66,67.33 -17.8,27.1 -30.18,56.5 -37.15,88.23 -6.97,31.73 -10.45,60.76 -10.45,87.07 0,26.32 4.64,54.57 13.93,84.75 9.29,30.18 23.22,57.67 41.79,82.43 18.58,24.77 42.18,45.28 70.82,61.53 28.64,16.26 62.31,24.39 101,24.39l109.13 0c61.93,0 118.42,11.99 169.51,35.99 51.08,23.99 94.43,56.11 130.03,96.36 35.61,40.24 63.08,87.07 82.43,140.48 19.36,53.4 29.03,109.51 29.03,168.34 0,63.46 -8.9,123.06 -26.7,178.8 -17.8,55.72 -44.12,104.87 -78.95,147.44 -34.83,42.57 -77.79,76.23 -128.87,101 -51.08,24.77 -109.9,37.15 -176.47,37.15l-109.13 0z"/>
 </g>
</svg>
