<?xml version="1.0" encoding="UTF-8"?>
<!DOCTYPE svg PUBLIC "-//W3C//DTD SVG 1.1//EN" "http://www.w3.org/Graphics/SVG/1.1/DTD/svg11.dtd">
<!-- Creator: CorelDRAW -->
<svg xmlns="http://www.w3.org/2000/svg" xml:space="preserve" width="90mm" height="18.5824mm" version="1.1" style="shape-rendering:geometricPrecision; text-rendering:geometricPrecision; image-rendering:optimizeQuality; fill-rule:evenodd; clip-rule:evenodd"
viewBox="0 0 1904.66 393.26"
 xmlns:xlink="http://www.w3.org/1999/xlink">
 <defs>
  <style type="text/css">
   <![CDATA[
    .fil0 {fill:url(#id0)}
   ]]>
  </style>
  <linearGradient id="id0" gradientUnits="userSpaceOnUse" x1="559.85" y1="259.8" x2="1904.66" y2="259.8">
   <stop offset="0" style="stop-opacity:1; stop-color:#0015FF"/>
   <stop offset="0.258824" style="stop-opacity:1; stop-color:#7B0BFF"/>
   <stop offset="1" style="stop-opacity:1; stop-color:#F700FF"/>
  </linearGradient>
 </defs>
 <g id="Capa_x0020_1">
  <metadata id="CorelCorpID_0Corel-Layer"/>
  <path class="fil0" d="M676.09 233l-42.13 71.99 -12 0 -41.86 -71.99 0 151.17 -20.26 0 0 -183.7 23.2 0 45.06 81.85 46.39 -81.85 22.13 0 0 183.7 -20.53 0 0 -151.17zm-211.1 29.96c0,-31.54 -3.86,-63.58 -12.33,-94.05 -6.35,-22.85 -15.29,-44.81 -27.18,-64.96 -8.92,-15.11 -19.5,-29.19 -31.86,-41.81 -18.55,-18.93 -41.15,-34.55 -67.97,-45.34 -26.82,-10.81 -57.82,-16.8 -93.15,-16.8 -41.17,-0.01 -76.61,8.44 -106.41,23.29 -22.35,11.13 -41.5,25.85 -57.54,43.08 -24.08,25.86 -41.2,57.33 -52.31,91.11 -11.11,33.8 -16.23,69.94 -16.24,105.46 0,2.51 0.93,4.81 2.47,6.57l0 55.67c0,5.35 4.34,9.7 9.7,9.7 2.96,0 5.62,-1.33 7.4,-3.43l0 2.39c0,17.38 8.47,28.19 21.17,28.19l16.24 0 0 7.17c0,13.28 10.77,24.05 24.05,24.05l16.98 0c13.28,0 24.05,-10.77 24.05,-24.05l0 -156.34c0,-13.28 -10.77,-24.05 -24.05,-24.05l-16.98 0c-13.28,0 -24.05,10.77 -24.05,24.05l0 2.45 -24.94 0c-3.71,0 -7.05,1.62 -9.33,4.19 1.98,-15.34 5.03,-30.5 9.23,-45.18 6.1,-21.36 14.6,-41.71 25.66,-60.17 11.69,-19.51 26.18,-36.89 43.76,-51.26 -0.15,2.98 0.56,6.03 2.21,8.77 4.42,7.34 13.95,9.7 21.3,5.28 31.45,-18.95 68.2,-29.85 107.63,-29.85 39.43,0 76.18,10.91 107.63,29.85 7.34,4.42 16.88,2.06 21.3,-5.28 1.86,-3.09 2.52,-6.57 2.11,-9.89 6.99,5.61 13.48,11.69 19.5,18.2 21.62,23.36 37.14,52.19 47.24,83.71 5.83,18.18 9.85,37.24 12.21,56.58 -2.28,-3 -5.88,-4.93 -9.94,-4.93l-25.29 0c-1.15,0 -2.26,0.16 -3.31,0.45l0 -2.9c0,-13.28 -10.77,-24.05 -24.05,-24.05l-16.98 0c-13.28,0 -24.05,10.77 -24.05,24.05l0 156.34c0,13.28 10.77,24.05 24.05,24.05l16.98 0c13.28,0 24.05,-10.77 24.05,-24.05l0 -7.17 19.91 0c12.7,0 21.17,-10.81 21.17,-28.19l0 -2.39c1.78,2.1 4.43,3.43 7.4,3.43 5.35,0 9.7,-4.34 9.7,-9.7l0 -55.24c1.77,-1.8 2.87,-4.27 2.87,-7zm1379.95 121.47c-6.22,0 -12.04,-1.11 -17.46,-3.33 -5.42,-2.22 -10.18,-5.24 -14.26,-9.06 -4.09,-3.82 -7.46,-8.27 -10.13,-13.33 -2.67,-5.07 -4.36,-10.53 -5.07,-16.4l21.33 0c0.53,2.66 1.51,5.33 2.93,8 1.42,2.67 3.2,5.07 5.33,7.2 2.13,2.13 4.62,3.86 7.47,5.2 2.84,1.33 6.13,2 9.86,2l12.53 0c5.69,0 10.22,-1.24 13.6,-3.73 3.38,-2.49 6,-5.46 7.86,-8.93 1.87,-3.47 3.11,-7.15 3.73,-11.06 0.62,-3.91 0.93,-7.29 0.93,-10.13 0,-7.29 -1.11,-12.97 -3.33,-17.06 -2.22,-4.09 -5.16,-7.15 -8.8,-9.2 -3.64,-2.04 -7.78,-3.33 -12.4,-3.87 -4.62,-0.53 -9.33,-0.8 -14.13,-0.8 -7.11,0 -13.55,-1.33 -19.33,-4 -5.78,-2.67 -10.75,-6.22 -14.93,-10.67 -4.18,-4.44 -7.38,-9.64 -9.6,-15.6 -2.22,-5.95 -3.33,-12.31 -3.33,-19.06 0,-6.58 1.11,-12.93 3.33,-19.06 2.22,-6.13 5.42,-11.47 9.6,-16 4.18,-4.53 9.16,-8.18 14.93,-10.93 5.78,-2.75 12.22,-4.13 19.33,-4.13l12.53 0c6.22,0 12,1.11 17.33,3.33 5.33,2.22 10.09,5.29 14.26,9.2 4.18,3.91 7.6,8.4 10.27,13.46 2.67,5.07 4.36,10.53 5.07,16.4l-21.33 0c-0.53,-2.67 -1.51,-5.33 -2.93,-8 -1.42,-2.67 -3.2,-5.07 -5.33,-7.2 -2.13,-2.13 -4.62,-3.87 -7.46,-5.2 -2.84,-1.33 -6.13,-2 -9.86,-2l-12.53 0c-5.15,0 -9.38,1.02 -12.66,3.07 -3.29,2.04 -5.96,4.62 -8,7.73 -2.04,3.11 -3.47,6.49 -4.27,10.13 -0.8,3.64 -1.2,6.98 -1.2,10 0,3.02 0.53,6.27 1.6,9.73 1.07,3.47 2.67,6.62 4.8,9.46 2.13,2.84 4.84,5.2 8.13,7.07 3.29,1.87 7.16,2.8 11.6,2.8l12.53 0c7.11,0 13.6,1.38 19.46,4.13 5.87,2.76 10.84,6.44 14.93,11.07 4.09,4.62 7.24,10 9.47,16.13 2.22,6.13 3.33,12.57 3.33,19.33 0,7.29 -1.02,14.13 -3.07,20.53 -2.04,6.4 -5.07,12.04 -9.07,16.93 -4,4.89 -8.93,8.75 -14.8,11.6 -5.86,2.84 -12.62,4.27 -20.26,4.27l-12.53 0zm-115.71 -47.99c0,3.56 0.62,7.02 1.87,10.4 1.24,3.38 3.02,6.36 5.33,8.93 2.31,2.58 5.07,4.67 8.27,6.26 3.2,1.6 6.75,2.4 10.66,2.4l6.13 0 0 19.73 -6.13 0c-6.4,0 -12.44,-1.24 -18.13,-3.73 -5.69,-2.49 -10.71,-5.86 -15.06,-10.13 -4.35,-4.27 -7.78,-9.29 -10.26,-15.06 -2.49,-5.78 -3.73,-12.04 -3.73,-18.8l0 -201.3 21.06 0 0 68.79 54.12 0 0 19.2 -54.12 0 0 113.31zm-107.45 47.99c-8,0 -14.97,-1.51 -20.93,-4.53 -5.96,-3.02 -10.89,-7.06 -14.8,-12.13 -3.91,-5.07 -6.8,-11.02 -8.67,-17.86 -1.87,-6.84 -2.8,-14 -2.8,-21.46 0,-6.4 1.2,-12.49 3.6,-18.26 2.4,-5.78 5.73,-10.89 10,-15.33 4.26,-4.44 9.24,-7.96 14.93,-10.53 5.69,-2.58 11.91,-3.86 18.66,-3.86l38.66 0 0 -31.73c0,-3.2 -0.58,-6.49 -1.73,-9.87 -1.16,-3.38 -2.84,-6.4 -5.07,-9.06 -2.22,-2.67 -4.93,-4.89 -8.13,-6.67 -3.2,-1.78 -6.93,-2.67 -11.2,-2.67l-43.19 0 0 -19.99 43.19 0c6.58,0 12.75,1.33 18.53,4 5.78,2.67 10.75,6.18 14.93,10.53 4.18,4.36 7.46,9.46 9.86,15.33 2.4,5.86 3.6,12 3.6,18.4l0 87.45c0,6.4 -1.2,12.53 -3.6,18.4 -2.4,5.87 -5.69,10.98 -9.86,15.33 -4.18,4.36 -9.16,7.86 -14.93,10.53 -5.78,2.67 -11.95,4 -18.53,4l-12.53 0zm0 -84.52c-4.26,0 -8,0.93 -11.2,2.8 -3.2,1.87 -5.91,4.18 -8.13,6.93 -2.22,2.76 -3.91,5.82 -5.07,9.2 -1.16,3.38 -1.73,6.58 -1.73,9.6l0 7.73c0,3.2 0.58,6.49 1.73,9.86 1.16,3.38 2.84,6.4 5.07,9.07 2.22,2.67 4.93,4.89 8.13,6.66 3.2,1.78 6.93,2.67 11.2,2.67l12.53 0c4.26,0 8,-0.89 11.2,-2.67 3.2,-1.78 5.91,-4 8.13,-6.66 2.22,-2.67 3.91,-5.69 5.07,-9.07 1.16,-3.38 1.73,-6.66 1.73,-9.86l0 -36.26 -38.66 0zm-154.1 36.26c0,6.93 1.29,12.26 3.87,16 2.58,3.73 5.78,6.53 9.6,8.4 3.82,1.86 8,2.98 12.53,3.33 4.53,0.36 8.76,0.53 12.66,0.53l30.13 0 0 20 -16 0 -30.93 -0.27c-6.04,0 -11.69,-1.33 -16.93,-4 -5.24,-2.67 -9.78,-6.22 -13.6,-10.66 -3.82,-4.44 -6.84,-9.55 -9.06,-15.33 -2.22,-5.78 -3.33,-11.78 -3.33,-18l0 -87.45c0,-6.4 1.2,-12.53 3.6,-18.4 2.4,-5.87 5.69,-10.98 9.86,-15.33 4.18,-4.36 9.16,-7.87 14.93,-10.53 5.78,-2.66 12.04,-4 18.8,-4l12.53 0c6.58,0 12.75,1.33 18.53,4 5.78,2.67 10.75,6.18 14.93,10.53 4.18,4.36 7.47,9.46 9.87,15.33 2.4,5.86 3.6,12 3.6,18.4l0 51.19 -85.58 0 0 36.26zm64.79 -87.45c0,-3.2 -0.58,-6.49 -1.73,-9.87 -1.16,-3.38 -2.84,-6.4 -5.07,-9.06 -2.22,-2.67 -4.93,-4.89 -8.13,-6.67 -3.2,-1.78 -6.93,-2.67 -11.2,-2.67l-12.53 0c-4.27,0 -8.04,0.89 -11.33,2.67 -3.29,1.78 -6,4 -8.13,6.67 -2.13,2.67 -3.78,5.69 -4.93,9.06 -1.16,3.38 -1.73,6.67 -1.73,9.87l0 31.73 64.79 0 0 -31.73zm-219.43 135.44l0 -183.7 59.72 0c6.4,0 12.49,1.24 18.26,3.73 5.78,2.49 10.8,5.87 15.06,10.13 4.27,4.27 7.64,9.33 10.13,15.2 2.49,5.86 3.73,12.09 3.73,18.66l0 4c0,6.4 -1.42,12.67 -4.26,18.8 -2.84,6.13 -7.38,12.57 -13.6,19.33 6.22,6.4 10.75,12.62 13.6,18.66 2.84,6.04 4.26,12.35 4.26,18.93l0 8.53c0,6.76 -1.24,13.02 -3.73,18.8 -2.49,5.78 -5.87,10.8 -10.13,15.06 -4.27,4.27 -9.29,7.64 -15.06,10.13 -5.78,2.49 -11.86,3.73 -18.26,3.73l-59.72 0zm86.12 -55.99c0,-3.56 -0.67,-7.07 -2,-10.53 -1.33,-3.47 -3.16,-6.53 -5.47,-9.2 -2.31,-2.67 -5.07,-4.8 -8.26,-6.4 -3.2,-1.6 -6.67,-2.4 -10.4,-2.4l-38.66 0 0 64.52 38.39 0c3.73,0 7.24,-0.76 10.53,-2.27 3.29,-1.51 6.09,-3.55 8.4,-6.13 2.31,-2.58 4.13,-5.51 5.47,-8.8 1.33,-3.29 2,-6.8 2,-10.53l0 -8.26zm0 -79.99c0,-3.73 -0.67,-7.29 -2,-10.67 -1.33,-3.38 -3.16,-6.35 -5.47,-8.93 -2.31,-2.58 -5.07,-4.62 -8.26,-6.13 -3.2,-1.51 -6.76,-2.27 -10.67,-2.27l-38.39 0 0 59.99 38.39 0c3.91,0 7.47,-0.8 10.67,-2.4 3.2,-1.6 5.95,-3.69 8.26,-6.27 2.31,-2.58 4.13,-5.55 5.47,-8.93 1.33,-3.38 2,-6.84 2,-10.4l0 -4zm-145.84 -27.73c-4.27,0 -8,0.84 -11.2,2.53 -3.2,1.69 -5.91,3.87 -8.13,6.53 -2.22,2.67 -3.91,5.64 -5.06,8.93 -1.16,3.29 -1.73,6.53 -1.73,9.73l0 136.24 -21.86 0 0 -135.71c0,-6.4 1.24,-12.53 3.73,-18.4 2.49,-5.87 5.87,-10.98 10.13,-15.33 4.27,-4.36 9.33,-7.87 15.2,-10.53 5.87,-2.66 12.18,-4 18.93,-4l43.73 0 0 19.99 -43.73 0zm-160.23 115.71c0,6.93 1.29,12.26 3.87,16 2.58,3.73 5.78,6.53 9.6,8.4 3.82,1.86 8,2.98 12.53,3.33 4.53,0.36 8.76,0.53 12.66,0.53l30.13 0 0 20 -16 0 -30.93 -0.27c-6.04,0 -11.69,-1.33 -16.93,-4 -5.24,-2.67 -9.78,-6.22 -13.6,-10.66 -3.82,-4.44 -6.84,-9.55 -9.06,-15.33 -2.22,-5.78 -3.33,-11.78 -3.33,-18l0 -87.45c0,-6.4 1.2,-12.53 3.6,-18.4 2.4,-5.87 5.69,-10.98 9.86,-15.33 4.18,-4.36 9.16,-7.87 14.93,-10.53 5.78,-2.66 12.04,-4 18.8,-4l12.53 0c6.58,0 12.75,1.33 18.53,4 5.78,2.67 10.75,6.18 14.93,10.53 4.18,4.36 7.47,9.46 9.87,15.33 2.4,5.86 3.6,12 3.6,18.4l0 51.19 -85.58 0 0 36.26zm64.79 -87.45c0,-3.2 -0.58,-6.49 -1.73,-9.87 -1.16,-3.38 -2.84,-6.4 -5.07,-9.06 -2.22,-2.67 -4.93,-4.89 -8.13,-6.67 -3.2,-1.78 -6.93,-2.67 -11.2,-2.67l-12.53 0c-4.27,0 -8.04,0.89 -11.33,2.67 -3.29,1.78 -6,4 -8.13,6.67 -2.13,2.67 -3.78,5.69 -4.93,9.06 -1.16,3.38 -1.73,6.67 -1.73,9.87l0 31.73 64.79 0 0 -31.73zm-157.04 87.72c0,3.56 0.62,7.02 1.87,10.4 1.24,3.38 3.02,6.36 5.33,8.93 2.31,2.58 5.07,4.67 8.27,6.26 3.2,1.6 6.75,2.4 10.66,2.4l6.13 0 0 19.73 -6.13 0c-6.4,0 -12.44,-1.24 -18.13,-3.73 -5.69,-2.49 -10.71,-5.86 -15.06,-10.13 -4.35,-4.27 -7.78,-9.29 -10.26,-15.06 -2.49,-5.78 -3.73,-12.04 -3.73,-18.8l0 -201.3 21.06 0 0 68.79 54.12 0 0 19.2 -54.12 0 0 113.31zm-105.05 47.99c-6.22,0 -12.04,-1.11 -17.46,-3.33 -5.42,-2.22 -10.18,-5.24 -14.26,-9.06 -4.09,-3.82 -7.46,-8.27 -10.13,-13.33 -2.67,-5.07 -4.36,-10.53 -5.07,-16.4l21.33 0c0.53,2.66 1.51,5.33 2.93,8 1.42,2.67 3.2,5.07 5.33,7.2 2.13,2.13 4.62,3.86 7.47,5.2 2.84,1.33 6.13,2 9.86,2l12.53 0c5.69,0 10.22,-1.24 13.6,-3.73 3.38,-2.49 6,-5.46 7.86,-8.93 1.87,-3.47 3.11,-7.15 3.73,-11.06 0.62,-3.91 0.93,-7.29 0.93,-10.13 0,-7.29 -1.11,-12.97 -3.33,-17.06 -2.22,-4.09 -5.16,-7.15 -8.8,-9.2 -3.64,-2.04 -7.78,-3.33 -12.4,-3.87 -4.62,-0.53 -9.33,-0.8 -14.13,-0.8 -7.11,0 -13.55,-1.33 -19.33,-4 -5.78,-2.67 -10.75,-6.22 -14.93,-10.67 -4.18,-4.44 -7.38,-9.64 -9.6,-15.6 -2.22,-5.95 -3.33,-12.31 -3.33,-19.06 0,-6.58 1.11,-12.93 3.33,-19.06 2.22,-6.13 5.42,-11.47 9.6,-16 4.18,-4.53 9.16,-8.18 14.93,-10.93 5.78,-2.75 12.22,-4.13 19.33,-4.13l12.53 0c6.22,0 12,1.11 17.33,3.33 5.33,2.22 10.09,5.29 14.26,9.2 4.18,3.91 7.6,8.4 10.27,13.46 2.67,5.07 4.36,10.53 5.07,16.4l-21.33 0c-0.53,-2.67 -1.51,-5.33 -2.93,-8 -1.42,-2.67 -3.2,-5.07 -5.33,-7.2 -2.13,-2.13 -4.62,-3.87 -7.46,-5.2 -2.84,-1.33 -6.13,-2 -9.86,-2l-12.53 0c-5.15,0 -9.38,1.02 -12.66,3.07 -3.29,2.04 -5.96,4.62 -8,7.73 -2.04,3.11 -3.47,6.49 -4.27,10.13 -0.8,3.64 -1.2,6.98 -1.2,10 0,3.02 0.53,6.27 1.6,9.73 1.07,3.47 2.67,6.62 4.8,9.46 2.13,2.84 4.84,5.2 8.13,7.07 3.29,1.87 7.16,2.8 11.6,2.8l12.53 0c7.11,0 13.6,1.38 19.46,4.13 5.87,2.76 10.84,6.44 14.93,11.07 4.09,4.62 7.24,10 9.47,16.13 2.22,6.13 3.33,12.57 3.33,19.33 0,7.29 -1.02,14.13 -3.07,20.53 -2.04,6.4 -5.07,12.04 -9.07,16.93 -4,4.89 -8.93,8.75 -14.8,11.6 -5.86,2.84 -12.62,4.27 -20.26,4.27l-12.53 0zm-130.64 0c-8,0 -14.97,-1.51 -20.93,-4.53 -5.96,-3.02 -10.89,-7.06 -14.8,-12.13 -3.91,-5.07 -6.8,-11.02 -8.67,-17.86 -1.87,-6.84 -2.8,-14 -2.8,-21.46 0,-6.4 1.2,-12.49 3.6,-18.26 2.4,-5.78 5.73,-10.89 10,-15.33 4.26,-4.44 9.24,-7.96 14.93,-10.53 5.69,-2.58 11.91,-3.86 18.66,-3.86l38.66 0 0 -31.73c0,-3.2 -0.58,-6.49 -1.73,-9.87 -1.16,-3.38 -2.84,-6.4 -5.07,-9.06 -2.22,-2.67 -4.93,-4.89 -8.13,-6.67 -3.2,-1.78 -6.93,-2.67 -11.2,-2.67l-43.19 0 0 -19.99 43.19 0c6.58,0 12.75,1.33 18.53,4 5.78,2.67 10.75,6.18 14.93,10.53 4.18,4.36 7.46,9.46 9.86,15.33 2.4,5.86 3.6,12 3.6,18.4l0 87.45c0,6.4 -1.2,12.53 -3.6,18.4 -2.4,5.87 -5.69,10.98 -9.86,15.33 -4.18,4.36 -9.16,7.86 -14.93,10.53 -5.78,2.67 -11.95,4 -18.53,4l-12.53 0zm0 -84.52c-4.26,0 -8,0.93 -11.2,2.8 -3.2,1.87 -5.91,4.18 -8.13,6.93 -2.22,2.76 -3.91,5.82 -5.07,9.2 -1.16,3.38 -1.73,6.58 -1.73,9.6l0 7.73c0,3.2 0.58,6.49 1.73,9.86 1.16,3.38 2.84,6.4 5.07,9.07 2.22,2.67 4.93,4.89 8.13,6.66 3.2,1.78 6.93,2.67 11.2,2.67l12.53 0c4.26,0 8,-0.89 11.2,-2.67 3.2,-1.78 5.91,-4 8.13,-6.66 2.22,-2.67 3.91,-5.69 5.07,-9.07 1.16,-3.38 1.73,-6.66 1.73,-9.86l0 -36.26 -38.66 0z"/>
 </g>
</svg>
