<?xml version="1.0" encoding="UTF-8"?>
<!DOCTYPE svg PUBLIC "-//W3C//DTD SVG 1.1//EN" "http://www.w3.org/Graphics/SVG/1.1/DTD/svg11.dtd">
<!-- Creator: CorelDRAW -->
<svg xmlns="http://www.w3.org/2000/svg" xml:space="preserve" width="90mm" height="18.5821mm" version="1.1" style="shape-rendering:geometricPrecision; text-rendering:geometricPrecision; image-rendering:optimizeQuality; fill-rule:evenodd; clip-rule:evenodd"
viewBox="0 0 41211.73 8508.89"
 xmlns:xlink="http://www.w3.org/1999/xlink">
 <defs>
  <style type="text/css">
   <![CDATA[
    .fil0 {fill:url(#id0)}
   ]]>
  </style>
  <linearGradient id="id0" gradientUnits="userSpaceOnUse" x1="12113.55" y1="5621.1" x2="41211.73" y2="5621.1">
   <stop offset="0" style="stop-opacity:1; stop-color:#1F5E9C"/>
   <stop offset="0.258824" style="stop-opacity:1; stop-color:#662FC9"/>
   <stop offset="1" style="stop-opacity:1; stop-color:#AD00F7"/>
  </linearGradient>
 </defs>
 <g id="Capa_x0020_1">
  <metadata id="CorelCorpID_0Corel-Layer"/>
  <path class="fil0" d="M14628.79 5041.34l-911.51 1557.57 -259.59 0 -905.7 -1557.57 0 3270.93 -438.45 0 0 -3974.73 501.91 0 974.93 1771.01 1003.78 -1771.01 478.79 0 0 3974.73 -444.17 0 0 -3270.93zm-4567.63 648.31c0,-682.42 -83.57,-1375.74 -266.69,-2034.9 -137.37,-494.31 -330.93,-969.57 -588.14,-1405.5 -192.96,-326.9 -421.87,-631.59 -689.43,-904.6 -401.36,-409.6 -890.36,-747.49 -1470.71,-981.11 -580.4,-233.9 -1251.14,-363.58 -2015.57,-363.49 -890.81,-0.18 -1657.63,182.52 -2302.36,504.02 -483.64,240.86 -897.91,559.29 -1245.05,932.21 -521.05,559.56 -891.5,1240.52 -1131.86,1971.43 -240.36,731.23 -351.26,1513.25 -351.35,2281.94 0,54.4 20.15,104.13 53.39,142.09l0 1204.48c0,115.85 93.92,209.81 209.81,209.81 64.15,0 121.57,-28.85 160.08,-74.23l0 51.74c0,376.03 183.21,609.89 458,609.89l351.49 0 0 155.05c0,287.38 232.98,520.41 520.41,520.41l367.43 0c287.43,0 520.46,-233.03 520.46,-520.41l0 -3382.84c0,-287.43 -233.03,-520.46 -520.46,-520.46l-367.43 0c-287.43,0 -520.41,233.03 -520.41,520.46l0 52.98 -539.55 0c-80.32,0 -152.44,35.08 -201.89,90.76 42.77,-331.85 108.89,-659.89 199.69,-977.63 131.97,-462.26 316,-902.54 555.21,-1301.97 252.86,-422.05 566.39,-798.18 946.82,-1109.24 -3.25,64.38 12.09,130.37 47.85,189.71 95.66,158.8 301.94,209.95 460.79,114.25 680.54,-409.97 1475.7,-645.83 2328.92,-645.93 853.08,0.09 1648.33,235.96 2328.78,645.93 158.85,95.7 365.14,44.55 460.84,-114.25 40.3,-66.85 54.58,-142.18 45.7,-214.07 151.25,121.44 291.69,253.04 421.92,393.71 467.75,505.39 803.54,1129.25 1022.23,1811.21 126.2,393.34 213.16,805.78 264.12,1224.22 -49.32,-64.84 -127.25,-106.69 -215.03,-106.69l-547.15 0c-24.82,0 -48.86,3.39 -71.71,9.66l0 -62.64c0,-287.43 -233.03,-520.46 -520.41,-520.46l-367.43 0c-287.43,0 -520.41,233.03 -520.41,520.46l0 3382.84c0,287.38 232.98,520.41 520.41,520.41l367.43 0c287.38,0 520.41,-233.03 520.41,-520.41l0 -155.05 430.8 0c274.84,0 458.05,-233.85 458.05,-609.89l0 -51.65c38.46,45.33 95.89,74.14 160.04,74.14 115.85,0 209.86,-93.96 209.86,-209.81l0 -1195.14c38.37,-38.97 62.09,-92.41 62.09,-151.43zm29858.31 2628.39c-134.58,0 -260.55,-24.04 -377.87,-72.12 -117.27,-48.08 -220.16,-113.42 -308.63,-196.12 -88.42,-82.7 -161.5,-178.86 -219.2,-288.44 -57.7,-109.62 -94.24,-227.9 -109.62,-354.79l461.53 0c11.54,57.65 32.69,115.35 63.47,173.04 30.77,57.7 69.24,109.62 115.35,155.78 46.16,46.16 100.01,83.61 161.55,112.46 61.54,28.85 132.7,43.27 213.43,43.27l271.17 0c123.04,0 221.12,-26.92 294.21,-80.77 73.04,-53.8 129.77,-118.23 170.16,-193.24 40.39,-75.01 67.31,-154.77 80.77,-239.39 13.46,-84.62 20.19,-157.7 20.19,-219.25 0,-157.66 -24.04,-280.74 -72.12,-369.21 -48.08,-88.42 -111.55,-154.77 -190.35,-199.01 -78.85,-44.23 -168.28,-72.12 -268.29,-83.66 -99.96,-11.54 -201.89,-17.31 -305.75,-17.31 -153.81,0 -293.24,-28.85 -418.21,-86.5 -125.01,-57.7 -232.71,-134.62 -323.1,-230.79 -90.35,-96.11 -159.58,-208.62 -207.66,-337.48 -48.08,-128.81 -72.12,-266.32 -72.12,-412.44 0,-142.32 24.04,-279.83 72.12,-412.48 48.08,-132.7 117.32,-248.09 207.66,-346.13 90.39,-98.08 198.09,-176.94 323.1,-236.56 124.96,-59.57 264.4,-89.38 418.21,-89.38l271.17 0c134.58,0 259.59,24.04 374.94,72.12 115.39,48.03 218.28,114.39 308.63,199.01 90.39,84.62 164.43,181.7 222.13,291.32 57.7,109.62 94.24,227.86 109.62,354.79l-461.53 0c-11.54,-57.7 -32.69,-115.39 -63.47,-173.04 -30.77,-57.7 -69.24,-109.62 -115.39,-155.78 -46.11,-46.16 -99.96,-83.66 -161.5,-112.51 -61.54,-28.85 -132.7,-43.27 -213.43,-43.27l-271.17 0c-111.5,0 -202.85,22.12 -274.01,66.35 -71.16,44.23 -128.86,100.01 -173.04,167.32 -44.23,67.31 -75.01,140.35 -92.31,219.2 -17.31,78.85 -25.96,150.97 -25.96,216.32 0,65.39 11.54,135.59 34.62,210.59 23.08,75.01 57.7,143.23 103.85,204.78 46.11,61.54 104.77,112.51 175.93,152.9 71.16,40.39 154.82,60.58 250.93,60.58l271.17 0c153.81,0 294.21,29.81 421.09,89.38 126.93,59.62 234.63,139.43 323.05,239.44 88.47,99.96 156.74,216.32 204.82,349.02 48.08,132.66 72.12,272.09 72.12,418.21 0,157.7 -22.12,305.75 -66.35,444.22 -44.23,138.47 -109.62,260.55 -196.17,366.33 -86.5,105.78 -193.24,189.39 -320.17,250.93 -126.89,61.54 -273.05,92.31 -438.4,92.31l-271.17 0zm-2503.66 -1038.4c0,76.93 13.46,151.93 40.39,224.97 26.92,73.08 65.34,137.51 115.35,193.28 50,55.77 109.62,100.97 178.86,135.54 69.24,34.62 146.12,51.93 230.74,51.93l132.7 0 0 426.91 -132.7 0c-138.43,0 -269.2,-26.92 -392.29,-80.77 -123.04,-53.85 -231.7,-126.89 -325.94,-219.2 -94.19,-92.31 -168.24,-200.98 -222.09,-325.94 -53.85,-125.01 -80.77,-260.55 -80.77,-406.71l0 -4355.48 455.76 0 0 1488.34 1171.05 0 0 415.37 -1171.05 0 0 2451.78zm-2324.89 1038.4c-173.04,0 -324.02,-32.69 -452.83,-98.08 -128.86,-65.39 -235.55,-152.85 -320.17,-262.47 -84.62,-109.62 -147.13,-238.43 -187.51,-386.52 -40.39,-148.04 -60.58,-302.86 -60.58,-464.36 0,-138.47 25.96,-270.21 77.89,-395.17 51.93,-125.01 124.05,-235.59 216.36,-331.71 92.27,-96.16 199.97,-172.13 323.05,-227.9 123.04,-55.73 257.66,-83.61 403.78,-83.61l836.51 0 0 -686.5c0,-69.24 -12.5,-140.39 -37.5,-213.48 -25,-73.08 -61.54,-138.43 -109.62,-196.12 -48.03,-57.7 -106.69,-105.78 -175.93,-144.24 -69.24,-38.46 -150.01,-57.7 -242.28,-57.7l-934.59 0 0 -432.63 934.59 0c142.27,0 275.94,28.85 400.9,86.5 125.01,57.7 232.71,133.66 323.1,227.9 90.35,94.24 161.5,204.78 213.43,331.71 51.93,126.89 77.89,259.59 77.89,398.06l0 1892.17c0,138.47 -25.96,271.13 -77.89,398.06 -51.93,126.93 -123.09,237.47 -213.43,331.71 -90.39,94.24 -198.09,170.16 -323.1,227.86 -124.96,57.7 -258.63,86.54 -400.9,86.54l-271.17 0zm0 -1828.75c-92.27,0 -173.04,20.19 -242.28,60.58 -69.24,40.39 -127.85,90.39 -175.93,150.01 -48.08,59.62 -84.62,125.92 -109.62,199.01 -25,73.08 -37.5,142.32 -37.5,207.71l0 167.27c0,69.24 12.5,140.39 37.5,213.43 25,73.08 61.54,138.47 109.62,196.17 48.08,57.7 106.69,105.78 175.93,144.2 69.24,38.46 150.01,57.7 242.28,57.7l271.17 0c92.27,0 173.04,-19.23 242.28,-57.7 69.24,-38.42 127.89,-86.5 175.93,-144.2 48.08,-57.7 84.62,-123.09 109.62,-196.17 25,-73.04 37.5,-144.2 37.5,-213.43l0 -784.58 -836.51 0zm-3334.35 784.58c0,150.01 27.89,265.36 83.66,346.13 55.73,80.77 124.96,141.36 207.66,181.74 82.7,40.34 173.04,64.38 271.13,72.07 98.08,7.69 189.44,11.54 274.01,11.54l651.88 0 0 432.68 -346.13 0 -669.19 -5.77c-130.73,0 -252.86,-28.85 -366.33,-86.54 -113.42,-57.7 -211.51,-134.58 -294.21,-230.74 -82.65,-96.16 -148.04,-206.7 -196.12,-331.71 -48.08,-125.01 -72.12,-254.78 -72.12,-389.41l0 -1892.17c0,-138.47 25.96,-271.17 77.89,-398.06 51.93,-126.93 123.09,-237.47 213.43,-331.71 90.39,-94.24 198.09,-170.2 323.05,-227.9 125.01,-57.65 260.6,-86.5 406.71,-86.5l271.13 0c142.32,0 275.98,28.85 400.94,86.5 125.01,57.7 232.66,133.66 323.05,227.9 90.39,94.24 161.55,204.78 213.48,331.71 51.88,126.89 77.84,259.59 77.84,398.06l0 1107.59 -1851.78 0 0 784.58zm1401.84 -1892.17c0,-69.24 -12.5,-140.39 -37.5,-213.48 -25,-73.08 -61.54,-138.43 -109.62,-196.12 -48.08,-57.7 -106.74,-105.78 -175.93,-144.24 -69.24,-38.46 -150.01,-57.7 -242.32,-57.7l-271.13 0c-92.31,0 -174.01,19.23 -245.16,57.7 -71.16,38.46 -129.82,86.54 -175.97,144.24 -46.11,57.7 -81.69,123.04 -106.69,196.12 -25,73.08 -37.5,144.24 -37.5,213.48l0 686.5 1401.84 0 0 -686.5zm-4747.77 2930.57l0 -3974.73 1292.22 0c138.47,0 270.21,26.92 395.17,80.73 125.01,53.85 233.62,126.93 325.94,219.25 92.31,92.31 165.4,201.89 219.25,328.82 53.8,126.89 80.73,261.51 80.73,403.83l0 86.5c0,138.47 -30.77,274.06 -92.27,406.71 -61.54,132.7 -159.63,272.09 -294.25,418.25 134.62,138.47 232.71,273.05 294.25,403.83 61.5,130.73 92.27,267.28 92.27,409.6l0 184.58c0,146.16 -26.92,281.71 -80.73,406.71 -53.85,124.96 -126.93,233.62 -219.25,325.94 -92.31,92.31 -200.93,165.35 -325.94,219.2 -124.96,53.85 -256.7,80.77 -395.17,80.77l-1292.22 0zm1863.37 -1211.44c0,-76.93 -14.42,-152.9 -43.27,-227.9 -28.85,-75.01 -68.27,-141.31 -118.28,-199.01 -50,-57.7 -109.62,-103.85 -178.81,-138.47 -69.24,-34.62 -144.24,-51.93 -225.02,-51.93l-836.46 0 0 1396.07 830.69 0c80.77,0 156.74,-16.35 227.9,-49.04 71.11,-32.65 131.69,-76.88 181.7,-132.66 50,-55.77 89.43,-119.24 118.28,-190.4 28.85,-71.11 43.27,-147.08 43.27,-227.86l0 -178.81zm0 -1730.66c0,-80.77 -14.42,-157.7 -43.27,-230.79 -28.85,-73.04 -68.27,-137.46 -118.28,-193.24 -50,-55.77 -109.62,-100.01 -178.81,-132.7 -69.24,-32.69 -146.16,-49.04 -230.79,-49.04l-830.69 0 0 1298.03 830.69 0c84.62,0 161.55,-17.31 230.79,-51.93 69.19,-34.62 128.81,-79.81 178.81,-135.59 50,-55.77 89.43,-120.16 118.28,-193.24 28.85,-73.08 43.27,-148.09 43.27,-225.02l0 -86.5zm-3155.63 -600c-92.31,0 -173.04,18.27 -242.28,54.81 -69.24,36.54 -127.89,83.66 -175.97,141.36 -48.08,57.7 -84.58,122.12 -109.58,193.24 -25,71.16 -37.5,141.36 -37.5,210.59l0 2947.87 -473.06 0 0 -2936.34c0,-138.47 26.92,-271.17 80.77,-398.06 53.85,-126.93 126.93,-237.47 219.2,-331.71 92.31,-94.24 201.94,-170.2 328.82,-227.9 126.93,-57.65 263.48,-86.5 409.6,-86.5l946.13 0 0 432.63 -946.13 0zm-3467.05 2503.7c0,150.01 27.89,265.36 83.66,346.13 55.73,80.77 124.96,141.36 207.66,181.74 82.7,40.34 173.04,64.38 271.13,72.07 98.08,7.69 189.44,11.54 274.01,11.54l651.88 0 0 432.68 -346.13 0 -669.19 -5.77c-130.73,0 -252.86,-28.85 -366.33,-86.54 -113.42,-57.7 -211.51,-134.58 -294.21,-230.74 -82.65,-96.16 -148.04,-206.7 -196.12,-331.71 -48.08,-125.01 -72.12,-254.78 -72.12,-389.41l0 -1892.17c0,-138.47 25.96,-271.17 77.89,-398.06 51.93,-126.93 123.09,-237.47 213.43,-331.71 90.39,-94.24 198.09,-170.2 323.05,-227.9 125.01,-57.65 260.6,-86.5 406.71,-86.5l271.13 0c142.32,0 275.98,28.85 400.94,86.5 125.01,57.7 232.66,133.66 323.05,227.9 90.39,94.24 161.55,204.78 213.48,331.71 51.88,126.89 77.84,259.59 77.84,398.06l0 1107.59 -1851.78 0 0 784.58zm1401.84 -1892.17c0,-69.24 -12.5,-140.39 -37.5,-213.48 -25,-73.08 -61.54,-138.43 -109.62,-196.12 -48.08,-57.7 -106.74,-105.78 -175.93,-144.24 -69.24,-38.46 -150.01,-57.7 -242.32,-57.7l-271.13 0c-92.31,0 -174.01,19.23 -245.16,57.7 -71.16,38.46 -129.82,86.54 -175.97,144.24 -46.11,57.7 -81.69,123.04 -106.69,196.12 -25,73.08 -37.5,144.24 -37.5,213.48l0 686.5 1401.84 0 0 -686.5zm-3397.86 1897.94c0,76.93 13.46,151.93 40.39,224.97 26.92,73.08 65.34,137.51 115.35,193.28 50,55.77 109.62,100.97 178.86,135.54 69.24,34.62 146.12,51.93 230.74,51.93l132.7 0 0 426.91 -132.7 0c-138.43,0 -269.2,-26.92 -392.29,-80.77 -123.04,-53.85 -231.7,-126.89 -325.94,-219.2 -94.19,-92.31 -168.24,-200.98 -222.09,-325.94 -53.85,-125.01 -80.77,-260.55 -80.77,-406.71l0 -4355.48 455.76 0 0 1488.34 1171.05 0 0 415.37 -1171.05 0 0 2451.78zm-2272.96 1038.4c-134.58,0 -260.55,-24.04 -377.87,-72.12 -117.27,-48.08 -220.16,-113.42 -308.63,-196.12 -88.42,-82.7 -161.5,-178.86 -219.2,-288.44 -57.7,-109.62 -94.24,-227.9 -109.62,-354.79l461.53 0c11.54,57.65 32.69,115.35 63.47,173.04 30.77,57.7 69.24,109.62 115.35,155.78 46.16,46.16 100.01,83.61 161.55,112.46 61.54,28.85 132.7,43.27 213.43,43.27l271.17 0c123.04,0 221.12,-26.92 294.21,-80.77 73.04,-53.8 129.77,-118.23 170.16,-193.24 40.39,-75.01 67.31,-154.77 80.77,-239.39 13.46,-84.62 20.19,-157.7 20.19,-219.25 0,-157.66 -24.04,-280.74 -72.12,-369.21 -48.08,-88.42 -111.55,-154.77 -190.35,-199.01 -78.85,-44.23 -168.28,-72.12 -268.29,-83.66 -99.96,-11.54 -201.89,-17.31 -305.75,-17.31 -153.81,0 -293.24,-28.85 -418.21,-86.5 -125.01,-57.7 -232.71,-134.62 -323.1,-230.79 -90.35,-96.11 -159.58,-208.62 -207.66,-337.48 -48.08,-128.81 -72.12,-266.32 -72.12,-412.44 0,-142.32 24.04,-279.83 72.12,-412.48 48.08,-132.7 117.32,-248.09 207.66,-346.13 90.39,-98.08 198.09,-176.94 323.1,-236.56 124.96,-59.57 264.4,-89.38 418.21,-89.38l271.17 0c134.58,0 259.59,24.04 374.94,72.12 115.39,48.03 218.28,114.39 308.63,199.01 90.39,84.62 164.43,181.7 222.13,291.32 57.7,109.62 94.24,227.86 109.62,354.79l-461.53 0c-11.54,-57.7 -32.69,-115.39 -63.47,-173.04 -30.77,-57.7 -69.24,-109.62 -115.39,-155.78 -46.11,-46.16 -99.96,-83.66 -161.5,-112.51 -61.54,-28.85 -132.7,-43.27 -213.43,-43.27l-271.17 0c-111.5,0 -202.85,22.12 -274.01,66.35 -71.16,44.23 -128.86,100.01 -173.04,167.32 -44.23,67.31 -75.01,140.35 -92.31,219.2 -17.31,78.85 -25.96,150.97 -25.96,216.32 0,65.39 11.54,135.59 34.62,210.59 23.08,75.01 57.7,143.23 103.85,204.78 46.11,61.54 104.77,112.51 175.93,152.9 71.16,40.39 154.82,60.58 250.93,60.58l271.17 0c153.81,0 294.21,29.81 421.09,89.38 126.93,59.62 234.63,139.43 323.05,239.44 88.47,99.96 156.74,216.32 204.82,349.02 48.08,132.66 72.12,272.09 72.12,418.21 0,157.7 -22.12,305.75 -66.35,444.22 -44.23,138.47 -109.62,260.55 -196.17,366.33 -86.5,105.78 -193.24,189.39 -320.17,250.93 -126.89,61.54 -273.05,92.31 -438.4,92.31l-271.17 0zm-2826.76 0c-173.04,0 -324.02,-32.69 -452.83,-98.08 -128.86,-65.39 -235.55,-152.85 -320.17,-262.47 -84.62,-109.62 -147.13,-238.43 -187.51,-386.52 -40.39,-148.04 -60.58,-302.86 -60.58,-464.36 0,-138.47 25.96,-270.21 77.89,-395.17 51.93,-125.01 124.05,-235.59 216.36,-331.71 92.27,-96.16 199.97,-172.13 323.05,-227.9 123.04,-55.73 257.66,-83.61 403.78,-83.61l836.51 0 0 -686.5c0,-69.24 -12.5,-140.39 -37.5,-213.48 -25,-73.08 -61.54,-138.43 -109.62,-196.12 -48.03,-57.7 -106.69,-105.78 -175.93,-144.24 -69.24,-38.46 -150.01,-57.7 -242.28,-57.7l-934.59 0 0 -432.63 934.59 0c142.27,0 275.94,28.85 400.9,86.5 125.01,57.7 232.71,133.66 323.1,227.9 90.35,94.24 161.5,204.78 213.43,331.71 51.93,126.89 77.89,259.59 77.89,398.06l0 1892.17c0,138.47 -25.96,271.13 -77.89,398.06 -51.93,126.93 -123.09,237.47 -213.43,331.71 -90.39,94.24 -198.09,170.16 -323.1,227.86 -124.96,57.7 -258.63,86.54 -400.9,86.54l-271.17 0zm0 -1828.75c-92.27,0 -173.04,20.19 -242.28,60.58 -69.24,40.39 -127.85,90.39 -175.93,150.01 -48.08,59.62 -84.62,125.92 -109.62,199.01 -25,73.08 -37.5,142.32 -37.5,207.71l0 167.27c0,69.24 12.5,140.39 37.5,213.43 25,73.08 61.54,138.47 109.62,196.17 48.08,57.7 106.69,105.78 175.93,144.2 69.24,38.46 150.01,57.7 242.28,57.7l271.17 0c92.27,0 173.04,-19.23 242.28,-57.7 69.24,-38.42 127.89,-86.5 175.93,-144.2 48.08,-57.7 84.62,-123.09 109.62,-196.17 25,-73.04 37.5,-144.2 37.5,-213.43l0 -784.58 -836.51 0z"/>
 </g>
</svg>
