<?xml version="1.0" encoding="UTF-8"?>
<!DOCTYPE svg PUBLIC "-//W3C//DTD SVG 1.1//EN" "http://www.w3.org/Graphics/SVG/1.1/DTD/svg11.dtd">
<!-- Creator: CorelDRAW -->
<svg xmlns="http://www.w3.org/2000/svg" xml:space="preserve" width="90mm" height="18.5821mm" version="1.1" style="shape-rendering:geometricPrecision; text-rendering:geometricPrecision; image-rendering:optimizeQuality; fill-rule:evenodd; clip-rule:evenodd"
viewBox="0 0 1279.5 264.18"
 xmlns:xlink="http://www.w3.org/1999/xlink">
 <defs>
  <style type="text/css">
   <![CDATA[
    .fil0 {fill:#66FFCC;fill-rule:nonzero}
   ]]>
  </style>
 </defs>
 <g id="Capa_x0020_1">
  <metadata id="CorelCorpID_0Corel-Layer"/>
  <polygon class="fil0" points="454.18,156.52 425.88,204.88 417.82,204.88 389.7,156.52 389.7,258.07 376.09,258.07 376.09,134.67 391.67,134.67 421.94,189.65 453.1,134.67 467.97,134.67 467.97,258.07 454.18,258.07 "/>
  <path id="1" class="fil0" d="M514 258.25c-5.37,0 -10.03,-1.07 -13.97,-3.05 -4.12,-1.97 -7.34,-4.84 -10.03,-8.24 -2.69,-3.4 -4.48,-7.34 -5.73,-12 -1.25,-4.48 -1.97,-9.31 -1.97,-14.33 0,-4.3 0.9,-8.42 2.51,-12.36 1.61,-3.76 3.76,-7.17 6.63,-10.21 2.86,-3.05 6.27,-5.37 10.03,-7.17 3.76,-1.61 8.06,-2.51 12.54,-2.51l25.97 0 0 -21.31c0,-2.15 -0.36,-4.3 -1.07,-6.63 -0.9,-2.33 -1.97,-4.3 -3.4,-6.09 -1.61,-1.79 -3.4,-3.22 -5.55,-4.48 -2.15,-1.25 -4.66,-1.79 -7.52,-1.79l-29.02 0 0 -13.43 29.02 0c4.48,0 8.6,0.9 12.54,2.69 3.76,1.79 7.17,4.12 10.03,6.99 2.69,3.05 5.01,6.45 6.63,10.39 1.61,3.94 2.33,8.06 2.33,12.36l0 58.75c0,4.3 -0.72,8.42 -2.33,12.36 -1.61,3.94 -3.94,7.34 -6.63,10.21 -2.87,3.05 -6.27,5.37 -10.03,7.16 -3.94,1.79 -8.06,2.69 -12.54,2.69l-8.42 0zm0 -56.78c-2.86,0 -5.37,0.54 -7.52,1.79 -2.15,1.25 -3.94,2.87 -5.37,4.66 -1.61,1.97 -2.69,3.94 -3.4,6.27 -0.9,2.33 -1.25,4.48 -1.25,6.45l0 5.19c0,2.15 0.36,4.3 1.25,6.63 0.72,2.33 1.79,4.3 3.4,6.09 1.43,1.79 3.22,3.22 5.37,4.48 2.15,1.25 4.66,1.79 7.52,1.79l8.42 0c2.86,0 5.37,-0.54 7.52,-1.79 2.15,-1.25 3.94,-2.69 5.55,-4.48 1.43,-1.79 2.51,-3.76 3.4,-6.09 0.72,-2.33 1.07,-4.48 1.07,-6.63l0 -24.36 -25.97 0z"/>
  <path id="2" class="fil0" d="M601.76 258.25c-4.12,0 -8.06,-0.72 -11.64,-2.33 -3.76,-1.43 -6.98,-3.4 -9.67,-6.09 -2.69,-2.51 -5.01,-5.55 -6.81,-8.96 -1.79,-3.4 -2.87,-6.99 -3.4,-10.93l14.33 0c0.36,1.79 1.07,3.58 1.97,5.37 0.9,1.79 2.15,3.4 3.58,4.84 1.43,1.43 3.05,2.51 5.02,3.4 1.97,0.9 4.12,1.43 6.63,1.43l8.42 0c3.76,0 6.81,-0.9 9.13,-2.51 2.33,-1.61 4.12,-3.76 5.37,-6.09 1.25,-2.33 1.97,-4.66 2.51,-7.34 0.36,-2.69 0.54,-4.84 0.54,-6.81 0,-4.84 -0.72,-8.78 -2.15,-11.46 -1.61,-2.69 -3.58,-4.84 -5.91,-6.27 -2.51,-1.25 -5.37,-2.15 -8.42,-2.51 -3.04,-0.36 -6.27,-0.54 -9.49,-0.54 -4.84,0 -9.13,-0.9 -12.89,-2.69 -3.94,-1.79 -7.34,-4.12 -10.03,-7.17 -2.86,-3.04 -5.01,-6.45 -6.45,-10.57 -1.61,-3.94 -2.33,-8.24 -2.33,-12.72 0,-4.48 0.72,-8.78 2.33,-12.9 1.43,-4.12 3.58,-7.7 6.45,-10.75 2.69,-3.05 6.09,-5.37 10.03,-7.34 3.76,-1.79 8.06,-2.69 12.89,-2.69l8.42 0c4.12,0 8.06,0.72 11.64,2.15 3.58,1.61 6.81,3.58 9.67,6.27 2.69,2.69 5.02,5.55 6.81,8.96 1.79,3.4 2.87,7.16 3.4,11.1l-14.33 0c-0.36,-1.79 -1.07,-3.58 -1.97,-5.37 -0.9,-1.79 -2.15,-3.4 -3.58,-4.84 -1.43,-1.43 -3.04,-2.69 -5.01,-3.58 -1.97,-0.9 -4.12,-1.25 -6.63,-1.25l-8.42 0c-3.4,0 -6.27,0.72 -8.42,1.97 -2.33,1.43 -4.12,3.22 -5.37,5.19 -1.43,2.15 -2.33,4.48 -2.87,6.81 -0.54,2.51 -0.9,4.84 -0.9,6.81 0,1.97 0.36,4.12 1.07,6.45 0.72,2.33 1.79,4.48 3.22,6.45 1.43,1.97 3.22,3.4 5.55,4.66 2.15,1.25 4.66,1.97 7.7,1.97l8.42 0c4.84,0 9.13,0.9 13.07,2.69 3.94,1.97 7.34,4.48 10.03,7.52 2.69,3.04 4.84,6.63 6.45,10.75 1.43,4.12 2.15,8.6 2.15,13.07 0,4.84 -0.72,9.49 -1.97,13.79 -1.43,4.3 -3.4,8.06 -6.09,11.28 -2.69,3.4 -6.09,5.91 -10.03,7.88 -3.94,1.97 -8.42,2.87 -13.61,2.87l-8.42 0z"/>
  <path id="3" class="fil0" d="M672.33 226.01c0,2.33 0.36,4.66 1.25,6.98 0.9,2.33 1.97,4.3 3.58,5.91 1.61,1.79 3.4,3.22 5.55,4.3 2.15,1.07 4.48,1.61 7.16,1.61l4.12 0 0 13.25 -4.12 0c-4.3,0 -8.42,-0.9 -12.18,-2.51 -3.76,-1.61 -7.16,-3.94 -10.03,-6.81 -3.04,-2.87 -5.37,-6.27 -6.98,-10.21 -1.61,-3.76 -2.51,-8.06 -2.51,-12.54l0 -135.22 14.15 0 0 46.21 36.36 0 0 12.9 -36.36 0 0 76.12z"/>
  <path id="4" class="fil0" d="M734.3 225.83c0,4.66 0.9,8.24 2.69,10.75 1.61,2.51 3.76,4.3 6.45,5.55 2.51,1.25 5.37,2.15 8.42,2.33 3.05,0.18 5.73,0.36 8.42,0.36l20.24 0 0 13.43 -10.75 0 -20.78 -0.18c-4.12,0 -7.88,-0.9 -11.28,-2.69 -3.58,-1.79 -6.63,-4.12 -9.13,-7.16 -2.69,-3.05 -4.66,-6.45 -6.09,-10.39 -1.61,-3.76 -2.33,-7.88 -2.33,-12l0 -58.75c0,-4.3 0.9,-8.42 2.51,-12.36 1.61,-3.94 3.76,-7.34 6.63,-10.39 2.69,-2.87 6.09,-5.19 10.03,-6.99 3.76,-1.79 8.06,-2.69 12.54,-2.69l8.42 0c4.48,0 8.6,0.9 12.54,2.69 3.76,1.79 7.16,4.12 10.03,6.99 2.69,3.05 5.02,6.45 6.63,10.39 1.61,3.94 2.33,8.06 2.33,12.36l0 34.39 -57.49 0 0 24.36zm43.52 -58.75c0,-2.15 -0.36,-4.3 -1.07,-6.63 -0.9,-2.33 -1.97,-4.3 -3.4,-6.09 -1.61,-1.79 -3.4,-3.22 -5.55,-4.48 -2.15,-1.25 -4.66,-1.79 -7.52,-1.79l-8.42 0c-2.87,0 -5.37,0.54 -7.52,1.79 -2.33,1.25 -4.12,2.69 -5.55,4.48 -1.43,1.79 -2.51,3.76 -3.22,6.09 -0.9,2.33 -1.25,4.48 -1.25,6.63l0 21.31 43.52 0 0 -21.31z"/>
  <path id="5" class="fil0" d="M841.94 148.1c-2.87,0 -5.37,0.54 -7.52,1.61 -2.15,1.25 -3.94,2.69 -5.37,4.48 -1.61,1.79 -2.69,3.76 -3.4,5.91 -0.9,2.33 -1.25,4.48 -1.25,6.63l0 91.52 -14.69 0 0 -91.16c0,-4.3 0.9,-8.42 2.51,-12.36 1.61,-3.94 3.94,-7.34 6.81,-10.39 2.87,-2.87 6.27,-5.19 10.21,-6.99 3.94,-1.79 8.24,-2.69 12.72,-2.69l29.37 0 0 13.43 -29.37 0z"/>
  <path id="6" class="fil0" d="M882.06 258.07l0 -123.4 40.12 0c4.3,0 8.42,0.9 12.36,2.51 3.76,1.61 7.16,3.94 10.03,6.81 2.87,2.87 5.19,6.27 6.81,10.21 1.61,3.94 2.51,8.06 2.51,12.54l0 2.69c0,4.3 -0.9,8.42 -2.86,12.54 -1.97,4.12 -5.02,8.6 -9.14,13.08 4.12,4.3 7.17,8.42 9.14,12.54 1.97,4.12 2.86,8.24 2.86,12.72l0 5.73c0,4.48 -0.9,8.78 -2.51,12.54 -1.61,3.94 -3.94,7.34 -6.81,10.21 -2.87,2.87 -6.27,5.19 -10.03,6.81 -3.94,1.61 -8.06,2.51 -12.36,2.51l-40.12 0zm57.85 -37.61c0,-2.33 -0.36,-4.84 -1.25,-7.17 -0.9,-2.33 -2.15,-4.3 -3.76,-6.09 -1.61,-1.79 -3.4,-3.22 -5.55,-4.3 -2.15,-1.07 -4.48,-1.61 -6.99,-1.61l-25.97 0 0 43.34 25.79 0c2.51,0 4.84,-0.54 7.17,-1.61 2.15,-0.89 3.94,-2.33 5.55,-4.12 1.61,-1.61 2.87,-3.58 3.76,-5.91 0.9,-2.15 1.25,-4.48 1.25,-6.98l0 -5.55zm0 -53.73c0,-2.51 -0.36,-4.84 -1.25,-7.17 -0.9,-2.33 -2.15,-4.3 -3.76,-6.09 -1.61,-1.61 -3.4,-3.05 -5.55,-4.12 -2.15,-0.9 -4.48,-1.43 -7.17,-1.43l-25.79 0 0 40.3 25.79 0c2.69,0 5.02,-0.54 7.17,-1.61 2.15,-1.07 3.94,-2.51 5.55,-4.3 1.61,-1.61 2.87,-3.58 3.76,-5.91 0.9,-2.33 1.25,-4.66 1.25,-6.99l0 -2.69z"/>
  <path id="7" class="fil0" d="M985.94 225.83c0,4.66 0.9,8.24 2.69,10.75 1.61,2.51 3.76,4.3 6.45,5.55 2.51,1.25 5.37,2.15 8.42,2.33 3.05,0.18 5.73,0.36 8.42,0.36l20.24 0 0 13.43 -10.75 0 -20.78 -0.18c-4.12,0 -7.88,-0.9 -11.28,-2.69 -3.58,-1.79 -6.63,-4.12 -9.13,-7.16 -2.69,-3.05 -4.66,-6.45 -6.09,-10.39 -1.61,-3.76 -2.33,-7.88 -2.33,-12l0 -58.75c0,-4.3 0.9,-8.42 2.51,-12.36 1.61,-3.94 3.76,-7.34 6.63,-10.39 2.69,-2.87 6.09,-5.19 10.03,-6.99 3.76,-1.79 8.06,-2.69 12.54,-2.69l8.42 0c4.48,0 8.6,0.9 12.54,2.69 3.76,1.79 7.16,4.12 10.03,6.99 2.69,3.05 5.02,6.45 6.63,10.39 1.61,3.94 2.33,8.06 2.33,12.36l0 34.39 -57.49 0 0 24.36zm43.52 -58.75c0,-2.15 -0.36,-4.3 -1.07,-6.63 -0.9,-2.33 -1.97,-4.3 -3.4,-6.09 -1.61,-1.79 -3.4,-3.22 -5.55,-4.48 -2.15,-1.25 -4.66,-1.79 -7.52,-1.79l-8.42 0c-2.87,0 -5.37,0.54 -7.52,1.79 -2.33,1.25 -4.12,2.69 -5.55,4.48 -1.43,1.79 -2.51,3.76 -3.22,6.09 -0.9,2.33 -1.25,4.48 -1.25,6.63l0 21.31 43.52 0 0 -21.31z"/>
  <path id="8" class="fil0" d="M1089.47 258.25c-5.37,0 -10.03,-1.07 -13.97,-3.05 -4.12,-1.97 -7.34,-4.84 -10.03,-8.24 -2.69,-3.4 -4.48,-7.34 -5.73,-12 -1.25,-4.48 -1.97,-9.31 -1.97,-14.33 0,-4.3 0.9,-8.42 2.51,-12.36 1.61,-3.76 3.76,-7.17 6.63,-10.21 2.86,-3.05 6.27,-5.37 10.03,-7.17 3.76,-1.61 8.06,-2.51 12.54,-2.51l25.97 0 0 -21.31c0,-2.15 -0.36,-4.3 -1.07,-6.63 -0.9,-2.33 -1.97,-4.3 -3.4,-6.09 -1.61,-1.79 -3.4,-3.22 -5.55,-4.48 -2.15,-1.25 -4.66,-1.79 -7.52,-1.79l-29.02 0 0 -13.43 29.02 0c4.48,0 8.6,0.9 12.54,2.69 3.76,1.79 7.17,4.12 10.03,6.99 2.69,3.05 5.01,6.45 6.63,10.39 1.61,3.94 2.33,8.06 2.33,12.36l0 58.75c0,4.3 -0.72,8.42 -2.33,12.36 -1.61,3.94 -3.94,7.34 -6.63,10.21 -2.87,3.05 -6.27,5.37 -10.03,7.16 -3.94,1.79 -8.06,2.69 -12.54,2.69l-8.42 0zm0 -56.78c-2.86,0 -5.37,0.54 -7.52,1.79 -2.15,1.25 -3.94,2.87 -5.37,4.66 -1.61,1.97 -2.69,3.94 -3.4,6.27 -0.9,2.33 -1.25,4.48 -1.25,6.45l0 5.19c0,2.15 0.36,4.3 1.25,6.63 0.72,2.33 1.79,4.3 3.4,6.09 1.43,1.79 3.22,3.22 5.37,4.48 2.15,1.25 4.66,1.79 7.52,1.79l8.42 0c2.86,0 5.37,-0.54 7.52,-1.79 2.15,-1.25 3.94,-2.69 5.55,-4.48 1.43,-1.79 2.51,-3.76 3.4,-6.09 0.72,-2.33 1.07,-4.48 1.07,-6.63l0 -24.36 -25.97 0z"/>
  <path id="9" class="fil0" d="M1161.65 226.01c0,2.33 0.36,4.66 1.25,6.98 0.9,2.33 1.97,4.3 3.58,5.91 1.61,1.79 3.4,3.22 5.55,4.3 2.15,1.07 4.48,1.61 7.16,1.61l4.12 0 0 13.25 -4.12 0c-4.3,0 -8.42,-0.9 -12.18,-2.51 -3.76,-1.61 -7.16,-3.94 -10.03,-6.81 -3.04,-2.87 -5.37,-6.27 -6.98,-10.21 -1.61,-3.76 -2.51,-8.06 -2.51,-12.54l0 -135.22 14.15 0 0 46.21 36.36 0 0 12.9 -36.36 0 0 76.12z"/>
  <path id="10" class="fil0" d="M1239.38 258.25c-4.12,0 -8.06,-0.72 -11.64,-2.33 -3.76,-1.43 -6.98,-3.4 -9.67,-6.09 -2.69,-2.51 -5.01,-5.55 -6.81,-8.96 -1.79,-3.4 -2.87,-6.99 -3.4,-10.93l14.33 0c0.36,1.79 1.07,3.58 1.97,5.37 0.9,1.79 2.15,3.4 3.58,4.84 1.43,1.43 3.05,2.51 5.02,3.4 1.97,0.9 4.12,1.43 6.63,1.43l8.42 0c3.76,0 6.81,-0.9 9.13,-2.51 2.33,-1.61 4.12,-3.76 5.37,-6.09 1.25,-2.33 1.97,-4.66 2.51,-7.34 0.36,-2.69 0.54,-4.84 0.54,-6.81 0,-4.84 -0.72,-8.78 -2.15,-11.46 -1.61,-2.69 -3.58,-4.84 -5.91,-6.27 -2.51,-1.25 -5.37,-2.15 -8.42,-2.51 -3.04,-0.36 -6.27,-0.54 -9.49,-0.54 -4.84,0 -9.13,-0.9 -12.89,-2.69 -3.94,-1.79 -7.34,-4.12 -10.03,-7.17 -2.86,-3.04 -5.01,-6.45 -6.45,-10.57 -1.61,-3.94 -2.33,-8.24 -2.33,-12.72 0,-4.48 0.72,-8.78 2.33,-12.9 1.43,-4.12 3.58,-7.7 6.45,-10.75 2.69,-3.05 6.09,-5.37 10.03,-7.34 3.76,-1.79 8.06,-2.69 12.89,-2.69l8.42 0c4.12,0 8.06,0.72 11.64,2.15 3.58,1.61 6.81,3.58 9.67,6.27 2.69,2.69 5.02,5.55 6.81,8.96 1.79,3.4 2.87,7.16 3.4,11.1l-14.33 0c-0.36,-1.79 -1.07,-3.58 -1.97,-5.37 -0.9,-1.79 -2.15,-3.4 -3.58,-4.84 -1.43,-1.43 -3.04,-2.69 -5.01,-3.58 -1.97,-0.9 -4.12,-1.25 -6.63,-1.25l-8.42 0c-3.4,0 -6.27,0.72 -8.42,1.97 -2.33,1.43 -4.12,3.22 -5.37,5.19 -1.43,2.15 -2.33,4.48 -2.87,6.81 -0.54,2.51 -0.9,4.84 -0.9,6.81 0,1.97 0.36,4.12 1.07,6.45 0.72,2.33 1.79,4.48 3.22,6.45 1.43,1.97 3.22,3.4 5.55,4.66 2.15,1.25 4.66,1.97 7.7,1.97l8.42 0c4.84,0 9.13,0.9 13.07,2.69 3.94,1.97 7.34,4.48 10.03,7.52 2.69,3.04 4.84,6.63 6.45,10.75 1.43,4.12 2.15,8.6 2.15,13.07 0,4.84 -0.72,9.49 -1.97,13.79 -1.43,4.3 -3.4,8.06 -6.09,11.28 -2.69,3.4 -6.09,5.91 -10.03,7.88 -3.94,1.97 -8.42,2.87 -13.61,2.87l-8.42 0z"/>
  <path class="fil0" d="M312.37 176.65c0,-21.19 -2.59,-42.71 -8.28,-63.18 -4.26,-15.35 -10.27,-30.1 -18.26,-43.64 -5.99,-10.15 -13.1,-19.61 -21.4,-28.08 -12.46,-12.72 -27.64,-23.21 -45.66,-30.46 -18.02,-7.26 -38.84,-11.29 -62.58,-11.29 -27.66,-0.01 -51.46,5.67 -71.48,15.65 -15.02,7.48 -27.88,17.36 -38.66,28.94 -16.18,17.37 -27.68,38.51 -35.14,61.21 -7.46,22.7 -10.91,46.98 -10.91,70.85 0,1.69 0.63,3.23 1.66,4.41l0 37.4c0,3.6 2.92,6.51 6.51,6.51 1.99,0 3.77,-0.9 4.97,-2.3l0 1.61c0,11.67 5.69,18.94 14.22,18.94l10.91 0 0 4.81c0,8.92 7.23,16.16 16.16,16.16l11.41 0c8.92,0 16.16,-7.23 16.16,-16.16l0 -105.03c0,-8.92 -7.23,-16.16 -16.16,-16.16l-11.41 0c-8.92,0 -16.16,7.23 -16.16,16.16l0 1.64 -16.75 0c-2.49,0 -4.73,1.09 -6.27,2.82 1.33,-10.3 3.38,-20.49 6.2,-30.35 4.1,-14.35 9.81,-28.02 17.24,-40.42 7.85,-13.1 17.58,-24.78 29.4,-34.44 -0.1,2 0.38,4.05 1.49,5.89 2.97,4.93 9.37,6.52 14.31,3.55 21.13,-12.73 45.82,-20.05 72.31,-20.05 26.49,0 51.18,7.33 72.3,20.05 4.93,2.97 11.34,1.38 14.31,-3.55 1.25,-2.08 1.69,-4.41 1.42,-6.65 4.7,3.77 9.06,7.86 13.1,12.22 14.52,15.69 24.95,35.06 31.74,56.23 3.92,12.21 6.62,25.02 8.2,38.01 -1.53,-2.01 -3.95,-3.31 -6.68,-3.31l-16.99 0c-0.77,0 -1.52,0.11 -2.23,0.3l0 -1.94c0,-8.92 -7.23,-16.16 -16.16,-16.16l-11.41 0c-8.92,0 -16.16,7.23 -16.16,16.16l0 105.03c0,8.92 7.23,16.16 16.16,16.16l11.41 0c8.92,0 16.16,-7.23 16.16,-16.16l0 -4.81 13.38 0c8.53,0 14.22,-7.26 14.22,-18.94l0 -1.6c1.19,1.41 2.98,2.3 4.97,2.3 3.6,0 6.52,-2.92 6.52,-6.51l0 -37.11c1.19,-1.21 1.93,-2.87 1.93,-4.7z"/>
 </g>
</svg>
