<?xml version="1.0" encoding="UTF-8"?>
<!DOCTYPE svg PUBLIC "-//W3C//DTD SVG 1.1//EN" "http://www.w3.org/Graphics/SVG/1.1/DTD/svg11.dtd">
<!-- Creator: CorelDRAW -->
<svg xmlns="http://www.w3.org/2000/svg" xml:space="preserve" width="32.8845mm" height="5.7734mm" version="1.1" style="shape-rendering:geometricPrecision; text-rendering:geometricPrecision; image-rendering:optimizeQuality; fill-rule:evenodd; clip-rule:evenodd"
viewBox="0 0 271.98 47.75"
 xmlns:xlink="http://www.w3.org/1999/xlink">
 <defs>
  <style type="text/css">
   <![CDATA[
    .str0 {stroke:yellow;stroke-width:1.4;stroke-miterlimit:22.9256}
    .fil1 {fill:none}
    .fil0 {fill:yellow}
   ]]>
  </style>
 </defs>
 <g id="Capa_x0020_1">
  <metadata id="CorelCorpID_0Corel-Layer"/>
  <g id="_105828233510272">
   <polygon class="fil0" points="22.93,2.28 28.32,18.98 45.87,18.94 31.66,29.23 37.11,45.91 22.93,35.57 8.76,45.91 14.21,29.23 -0,18.94 17.55,18.98 "/>
   <polygon class="fil0" points="78.92,2.28 84.31,18.98 101.86,18.94 87.64,29.23 93.09,45.91 78.92,35.57 64.75,45.91 70.2,29.23 55.99,18.94 73.53,18.98 "/>
   <polygon class="fil0" points="134.91,2.28 140.3,18.98 157.84,18.94 143.63,29.23 149.08,45.91 134.91,35.57 120.73,45.91 126.19,29.23 111.97,18.94 129.52,18.98 "/>
   <polygon class="fil1 str0" points="190.89,2.28 196.28,18.98 213.83,18.94 199.61,29.23 205.07,45.91 190.89,35.57 176.72,45.91 182.17,29.23 167.96,18.94 185.5,18.98 "/>
   <polygon class="fil1 str0" points="246.88,2.28 252.27,18.98 269.81,18.94 255.6,29.23 261.05,45.91 246.88,35.57 232.7,45.91 238.16,29.23 223.94,18.94 241.49,18.98 "/>
   <polygon class="fil0" points="190.89,2.28 190.89,35.57 176.72,45.91 182.17,29.23 167.96,18.94 185.5,18.98 "/>
  </g>
 </g>
</svg>
