<?xml version="1.0" encoding="UTF-8"?>
<!DOCTYPE svg PUBLIC "-//W3C//DTD SVG 1.1//EN" "http://www.w3.org/Graphics/SVG/1.1/DTD/svg11.dtd">
<!-- Creator: CorelDRAW -->
<svg xmlns="http://www.w3.org/2000/svg" xml:space="preserve" width="19.9435mm" height="13.0918mm" version="1.1" style="shape-rendering:geometricPrecision; text-rendering:geometricPrecision; image-rendering:optimizeQuality; fill-rule:evenodd; clip-rule:evenodd"
viewBox="0 0 64.33 42.23"
 xmlns:xlink="http://www.w3.org/1999/xlink">
 <defs>
  <style type="text/css">
   <![CDATA[
    .fil2 {fill:blue}
    .fil0 {fill:#333333}
    .fil1 {fill:#B3B3B3}
   ]]>
  </style>
 </defs>
 <g id="Capa_x0020_1">
  <metadata id="CorelCorpID_0Corel-Layer"/>
  <path class="fil0" d="M29.94 4.99c-0.5,0.42 -0.99,0.86 -1.46,1.33 -8.39,8.39 -7.97,19.88 0.42,28.28 1.17,1.17 2.87,4.29 4.22,5.13 -3.81,-1.71 -7.29,-4.45 -12.39,-5.88 -5.5,-1.53 -7.85,-1.16 -11.09,-1.62 2.55,-0.14 5.49,-1.59 7.44,-3.54 4.19,-4.19 4.2,-9.31 0,-13.51 -1.36,-1.36 -2.58,-3.54 -4.31,-4.02 5.42,-0.65 10.55,-1.51 17.16,-6.17l0 0z"/>
  <circle class="fil1" cx="10.69" cy="21.43" r="10.69"/>
  <circle class="fil0" cx="10.69" cy="21.43" r="8.43"/>
  <circle class="fil1" cx="43.22" cy="21.12" r="21.12"/>
  <circle class="fil0" cx="43.22" cy="21.12" r="16.64"/>
  <polygon class="fil2" points="39.27,28.46 39.27,13.49 49.42,20.98 39.27,28.46 "/>
  <g id="_105553391247456">
   <polygon class="fil2" points="12.69,24.32 12.69,18.55 11.25,18.55 11.25,24.32 "/>
   <polygon class="fil2" points="10.14,18.55 8.69,18.55 8.69,24.32 10.14,24.32 "/>
  </g>
 </g>
</svg>
