<?xml version="1.0" encoding="UTF-8"?>
<!DOCTYPE svg PUBLIC "-//W3C//DTD SVG 1.1//EN" "http://www.w3.org/Graphics/SVG/1.1/DTD/svg11.dtd">
<!-- Creator: CorelDRAW -->
<svg xmlns="http://www.w3.org/2000/svg" xml:space="preserve" width="118.713mm" height="23.6186mm" version="1.1" style="shape-rendering:geometricPrecision; text-rendering:geometricPrecision; image-rendering:optimizeQuality; fill-rule:evenodd; clip-rule:evenodd"
viewBox="0 0 2131 423.98"
 xmlns:xlink="http://www.w3.org/1999/xlink">
 <defs>
  <style type="text/css">
   <![CDATA[
    .str0 {stroke:black;stroke-width:3.04;stroke-miterlimit:22.9256}
    .fil0 {fill:black}
    .fil2 {fill:#333333}
    .fil3 {fill:#66FFCC}
    .fil1 {fill:#B3B3B3}
   ]]>
  </style>
 </defs>
 <g id="Capa_x0020_1">
  <metadata id="CorelCorpID_0Corel-Layer"/>
  <rect class="fil0 str0" x="1.52" y="1.52" width="2127.96" height="420.94" rx="136.81" ry="169.25"/>
  <g id="_105553481388736">
   <g>
    <path class="fil1" d="M1250.66 87.24c68.9,0 124.75,55.85 124.75,124.75 0,68.9 -55.85,124.75 -124.75,124.75 -18.48,0 -36.01,-4.02 -51.78,-11.23 -23.91,-7.88 -48.78,-11.82 -73.65,-11.82 -23.73,0 -47.46,3.59 -70.36,10.76 -16.35,7.87 -34.68,12.28 -54.04,12.28 -68.9,0 -124.75,-55.85 -124.75,-124.75 0,-68.9 55.85,-124.75 124.75,-124.75 19.35,0 37.66,4.41 54.01,12.27 22.91,7.18 46.66,10.77 70.4,10.77 24.89,0 49.78,-3.95 73.72,-11.84 15.76,-7.19 33.26,-11.19 51.71,-11.19z"/>
    <circle class="fil2" cx="1000.82" cy="211.99" r="98.3"/>
    <circle class="fil2" cx="1250.66" cy="211.99" r="98.3"/>
    <polygon class="fil3" points="1029.05,253.64 1029.05,170.33 972.58,211.99 1029.05,253.64 "/>
    <polygon class="fil3" points="1222.42,253.64 1222.42,170.33 1278.89,211.99 1222.42,253.64 "/>
   </g>
   <g>
    <path class="fil1" d="M1881.67 87.24c68.9,0 124.75,55.85 124.75,124.75 0,68.9 -55.85,124.75 -124.75,124.75 -18.48,0 -36.01,-4.02 -51.78,-11.23 -23.91,-7.88 -48.78,-11.82 -73.65,-11.82 -23.73,0 -47.46,3.59 -70.36,10.76 -16.35,7.87 -34.68,12.28 -54.04,12.28 -68.9,0 -124.75,-55.85 -124.75,-124.75 0,-68.9 55.85,-124.75 124.75,-124.75 19.35,0 37.66,4.41 54.01,12.27 22.91,7.18 46.66,10.77 70.4,10.77 24.89,0 49.78,-3.95 73.72,-11.84 15.76,-7.19 33.26,-11.19 51.71,-11.19z"/>
    <circle class="fil2" cx="1631.83" cy="211.99" r="98.3"/>
    <circle class="fil2" cx="1881.67" cy="211.99" r="98.3"/>
    <polygon class="fil3" points="1665.05,220.29 1665.05,203.68 1640.14,203.68 1640.14,178.77 1623.53,178.77 1623.53,203.68 1598.61,203.68 1598.61,220.29 1623.53,220.29 1623.53,245.21 1640.14,245.21 1640.14,220.29 "/>
    <polygon class="fil3" points="1848.45,220.29 1914.89,220.29 1914.89,203.68 1848.45,203.68 "/>
   </g>
   <g>
    <path class="fil2" d="M511.15 164.15c-0.32,3.61 -0.52,7.26 -0.52,10.95 0,66.05 46.86,109.62 112.94,109.62 9.23,0 28.17,5.56 36.79,3.59 -21.71,8.29 -46.21,11.15 -71.9,25.64 -27.66,15.59 -35.46,26.29 -50.01,37.25 9.52,-10.59 15.36,-27.87 15.36,-43.22 0,-33 -20.13,-53.15 -53.15,-53.15 -10.71,0 -24.06,-3.79 -32.75,1.14 18.75,-23.87 35.56,-47.44 43.23,-91.82l0 0z"/>
    <circle class="fil1" cx="499.47" cy="306.88" r="59.51"/>
    <circle class="fil2" cx="499.47" cy="306.88" r="46.89"/>
    <circle class="fil1" cx="626.89" cy="175.1" r="117.51"/>
    <circle class="fil2" cx="626.89" cy="175.1" r="92.59"/>
    <polygon class="fil3" points="604.93,215.98 604.93,132.67 661.4,174.33 604.93,215.98 "/>
    <polygon class="fil3" points="510.6,322.95 510.6,290.81 502.57,290.81 502.57,322.95 "/>
    <polygon class="fil3" points="496.38,290.81 488.34,290.81 488.34,322.95 496.38,322.95 "/>
   </g>
   <g>
    <circle class="fil1" cx="216.44" cy="211.99" r="91.86"/>
    <circle class="fil2" cx="216.44" cy="211.99" r="73.65"/>
    <path class="fil3" d="M211.68 188.48l0 23.81c0,2.63 2.13,4.76 4.76,4.76l0 0c2.63,0 4.76,-2.13 4.76,-4.76l0 -23.81c0,-2.63 -2.13,-4.76 -4.76,-4.76 -2.63,0 -4.76,2.13 -4.76,4.76z"/>
    <path class="fil3" d="M216.44 240.26c-15.42,0 -27.97,-12.55 -27.97,-27.97 0,-8.26 3.63,-16.06 9.97,-21.39 0.78,-0.66 1.73,-0.98 2.68,-0.98 1.19,0 2.36,0.5 3.19,1.48 1.48,1.76 1.26,4.39 -0.5,5.87 -4.45,3.75 -7,9.22 -7,15.02 0,10.83 8.81,19.64 19.64,19.64 10.83,0 19.64,-8.81 19.64,-19.64 0,-5.8 -2.55,-11.28 -7,-15.02 -1.76,-1.48 -1.99,-4.11 -0.5,-5.87 0.82,-0.98 2,-1.48 3.19,-1.48 0.95,0 1.9,0.32 2.68,0.98 6.34,5.33 9.97,13.13 9.97,21.39 0,15.42 -12.55,27.97 -27.97,27.97z"/>
   </g>
  </g>
 </g>
</svg>
