<?xml version="1.0" encoding="UTF-8"?>
<!DOCTYPE svg PUBLIC "-//W3C//DTD SVG 1.1//EN" "http://www.w3.org/Graphics/SVG/1.1/DTD/svg11.dtd">
<!-- Creator: CorelDRAW -->
<svg xmlns="http://www.w3.org/2000/svg" xml:space="preserve" width="13.1918mm" height="7.52mm" version="1.1" style="shape-rendering:geometricPrecision; text-rendering:geometricPrecision; image-rendering:optimizeQuality; fill-rule:evenodd; clip-rule:evenodd"
viewBox="0 0 44.08 25.13"
 xmlns:xlink="http://www.w3.org/1999/xlink">
 <defs>
  <style type="text/css">
   <![CDATA[
    .fil0 {fill:white}
   ]]>
  </style>
 </defs>
 <g id="Capa_x0020_1">
  <metadata id="CorelCorpID_0Corel-Layer"/>
  <path class="fil0" d="M39.85 24.28l-0.4 0 0 -2.47 0.43 0c0.85,0 1.21,0.41 1.21,1.24 0,0.74 -0.39,1.24 -1.24,1.24zm0.06 -3.26l-1.27 0 0 4.05 1.21 0c1.04,0 2.07,-0.6 2.07,-2.02 0,-1.48 -0.85,-2.02 -2.01,-2.02zm-3.09 2.27c0,0.65 -0.32,1.05 -0.83,1.05 -0.52,0 -0.83,-0.41 -0.83,-1.06l0 -2.26 -0.81 0 0 2.27c0,1.18 0.66,1.84 1.64,1.84 1.03,0 1.64,-0.68 1.64,-1.85l0 -2.26 -0.81 0 0 2.27zm-5.02 1.03c-0.65,0 -0.92,-0.56 -0.92,-1.28 0,-0.72 0.27,-1.28 0.92,-1.28 0.65,0 0.92,0.56 0.92,1.28 0,0.72 -0.27,1.28 -0.92,1.28zm0 -3.37c-1.1,0 -1.76,0.86 -1.76,2.09 0,1.23 0.65,2.09 1.76,2.09 1.1,0 1.76,-0.85 1.76,-2.09 0,-1.23 -0.65,-2.09 -1.76,-2.09zm-3.75 0.06l-0.81 0 0 4.05 2.43 0 0 -0.8 -1.62 0 0 -3.25zm-3 0.74c0.36,0 0.6,0.16 0.74,0.44l0.75 -0.35c-0.25,-0.53 -0.72,-0.9 -1.48,-0.9 -1.06,0 -1.8,0.86 -1.8,2.09 0,1.28 0.71,2.09 1.77,2.09 0.73,0 1.22,-0.34 1.5,-0.91l-0.68 -0.4c-0.21,0.36 -0.43,0.51 -0.79,0.51 -0.61,0 -0.96,-0.55 -0.96,-1.28 0,-0.75 0.35,-1.28 0.95,-1.28zm-4.57 2.52l-0.4 0 0 -2.47 0.43 0c0.86,0 1.21,0.41 1.21,1.24 0,0.74 -0.39,1.24 -1.24,1.24zm0.06 -3.26l-1.27 0 0 4.05 1.21 0c1.04,0 2.07,-0.6 2.07,-2.02 0,-1.48 -0.86,-2.02 -2.01,-2.02zm-3.1 1.71c0,0.23 0.01,0.73 0.01,0.88 -0.05,-0.1 -0.18,-0.31 -0.28,-0.46l-1.43 -2.14 -0.77 0 0 4.05 0.8 0 0 -1.78c0,-0.23 -0.01,-0.73 -0.01,-0.88 0.05,0.1 0.18,0.31 0.28,0.46l1.49 2.21 0.72 0 0 -4.05 -0.8 0 0 1.71zm-4.3 0.56c0,0.65 -0.32,1.05 -0.83,1.05 -0.51,0 -0.83,-0.41 -0.83,-1.06l0 -2.26 -0.81 0 0 2.27c0,1.18 0.66,1.84 1.64,1.84 1.03,0 1.64,-0.68 1.64,-1.85l0 -2.26 -0.81 0 0 2.27zm-5.02 1.03c-0.65,0 -0.92,-0.56 -0.92,-1.28 0,-0.72 0.27,-1.28 0.92,-1.28 0.65,0 0.92,0.56 0.92,1.28 0,0.72 -0.27,1.28 -0.92,1.28zm0 -3.37c-1.1,0 -1.76,0.86 -1.76,2.09 0,1.23 0.65,2.09 1.76,2.09 1.1,0 1.76,-0.85 1.76,-2.09 0,-1.23 -0.65,-2.09 -1.76,-2.09zm-3.72 1.64c-0.64,-0.15 -0.81,-0.23 -0.81,-0.49 0,-0.18 0.14,-0.36 0.58,-0.36 0.37,0 0.66,0.15 0.92,0.42l0.58 -0.57c-0.38,-0.4 -0.84,-0.64 -1.47,-0.64 -0.8,0 -1.45,0.45 -1.45,1.19 0,0.8 0.52,1.03 1.27,1.21 0.76,0.17 0.9,0.29 0.9,0.55 0,0.31 -0.23,0.44 -0.71,0.44 -0.39,0 -0.75,-0.13 -1.03,-0.46l-0.58 0.52c0.31,0.45 0.9,0.73 1.57,0.73 1.1,0 1.59,-0.52 1.59,-1.29 0,-0.88 -0.71,-1.1 -1.35,-1.25zm17.56 -21.32c-0.33,0 -0.59,0.27 -0.6,0.6l-0.24 12.21 0.24 4.43c0,0.32 0.27,0.59 0.6,0.59 0.32,0 0.59,-0.27 0.6,-0.6l0 0.01 0.27 -4.43 -0.27 -12.21c-0,-0.33 -0.27,-0.59 -0.6,-0.59zm16.72 7.03c-0.74,0 -1.45,0.15 -2.1,0.42 -0.43,-4.89 -4.53,-8.72 -9.53,-8.72 -1.22,0 -2.42,0.24 -3.47,0.65 -0.41,0.16 -0.52,0.32 -0.52,0.64l0 17.21c0,0.33 0.26,0.61 0.59,0.64 0.01,0 14.93,0.01 15.03,0.01 2.99,0 5.42,-2.43 5.42,-5.42 0,-2.99 -2.43,-5.42 -5.42,-5.42zm-23.66 10.38l0 -0 0.31 -4.6 -0.31 -10.02c-0.01,-0.25 -0.2,-0.44 -0.45,-0.44 -0.24,0 -0.44,0.19 -0.45,0.44l-0.28 10.02 0.28 4.6c0.01,0.25 0.2,0.44 0.45,0.44 0.24,0 0.44,-0.19 0.45,-0.44l0 0zm-4.07 0.44c0.2,0 0.36,-0.16 0.37,-0.37l0.36 -4.68 -0.36 -8.95c-0.01,-0.21 -0.17,-0.37 -0.37,-0.37 -0.2,0 -0.36,0.16 -0.37,0.37 0,0 -0.32,8.95 -0.32,8.95l0.32 4.68c0.01,0.2 0.17,0.37 0.37,0.37zm7.3 -14.97c-0.29,0 -0.52,0.23 -0.52,0.52l-0.23 9.41 0.23 4.53c0.01,0.29 0.24,0.52 0.52,0.52 0.29,0 0.51,-0.23 0.52,-0.52l0 0 0.26 -4.53 -0.26 -9.41c-0.01,-0.29 -0.23,-0.52 -0.52,-0.52zm-14.36 14.66c0.11,0 0.21,-0.09 0.22,-0.22l0.47 -4.53 -0.47 -4.7c-0.01,-0.13 -0.11,-0.22 -0.22,-0.22 -0.12,0 -0.21,0.09 -0.22,0.22 0,0 -0.41,4.7 -0.41,4.7l0.41 4.52c0.01,0.13 0.1,0.22 0.22,0.22zm3.51 0.26c0.16,0 0.28,-0.13 0.3,-0.29l0.42 -4.71 -0.42 -4.48c-0.01,-0.17 -0.14,-0.29 -0.3,-0.29 -0.16,0 -0.29,0.13 -0.3,0.29l-0.37 4.48 0.37 4.71c0.01,0.17 0.14,0.29 0.3,0.29zm9.01 0.04c0.26,0 0.48,-0.21 0.48,-0.48l0 0 0.29 -4.56 -0.29 -9.77c-0.01,-0.27 -0.22,-0.48 -0.48,-0.48 -0.27,0 -0.48,0.21 -0.48,0.48l-0.26 9.77 0.26 4.56c0.01,0.27 0.22,0.48 0.48,0.48zm3.7 0.02c0.3,0 0.55,-0.25 0.56,-0.56l0 0 0 -0 0.24 -4.49 -0.24 -11.2c-0.01,-0.31 -0.26,-0.56 -0.56,-0.56 -0.3,0 -0.55,0.25 -0.56,0.56l-0.21 11.19c0,0.01 0.21,4.5 0.21,4.5 0,0.3 0.25,0.55 0.56,0.55zm-7.35 -0.02c0.22,0 0.4,-0.18 0.41,-0.41l0.34 -4.63 -0.34 -9.7c-0.01,-0.23 -0.19,-0.41 -0.41,-0.41 -0.22,0 -0.4,0.18 -0.41,0.41 0,0 -0.3,9.7 -0.3,9.7l0.3 4.63c0.01,0.23 0.19,0.4 0.41,0.4zm-7.13 -10.12c-0.14,0 -0.25,0.11 -0.26,0.25l-0.39 4.83 0.39 4.67c0.01,0.14 0.12,0.25 0.26,0.25 0.14,0 0.25,-0.11 0.26,-0.25l0.44 -4.67 -0.44 -4.83c-0.01,-0.14 -0.12,-0.25 -0.26,-0.25zm3.53 -2.53c-0.18,0 -0.32,0.15 -0.33,0.33l-0.34 7.28 0.34 4.71c0.01,0.18 0.16,0.33 0.33,0.33 0.18,0 0.32,-0.15 0.33,-0.33l0 0 0.39 -4.71 -0.39 -7.28c-0.01,-0.19 -0.16,-0.33 -0.33,-0.33zm-6.83 3.65c-0.02,-0.1 -0.09,-0.18 -0.18,-0.18 -0.09,0 -0.17,0.07 -0.18,0.18 0,0 -0.43,3.96 -0.43,3.96l0.43 3.87c0.01,0.1 0.09,0.18 0.18,0.18 0.09,0 0.17,-0.07 0.18,-0.18l0.49 -3.87 -0.49 -3.96zm-1.81 1.34c-0.09,0 -0.16,0.07 -0.18,0.17l-0.32 2.45 0.32 2.41c0.01,0.1 0.08,0.17 0.18,0.17 0.09,0 0.16,-0.07 0.18,-0.17l0 -0c0,0 0,0 0,0l0.38 -2.41 -0.38 -2.45c-0.01,-0.1 -0.09,-0.17 -0.18,-0.17l0 0z"/>
 </g>
</svg>
