<?xml version="1.0" encoding="UTF-8"?>
<!DOCTYPE svg PUBLIC "-//W3C//DTD SVG 1.1//EN" "http://www.w3.org/Graphics/SVG/1.1/DTD/svg11.dtd">
<!-- Creator: CorelDRAW -->
<svg xmlns="http://www.w3.org/2000/svg" xml:space="preserve" width="18mm" height="6.3078mm" version="1.1" style="shape-rendering:geometricPrecision; text-rendering:geometricPrecision; image-rendering:optimizeQuality; fill-rule:evenodd; clip-rule:evenodd"
viewBox="0 0 82.07 28.76"
 xmlns:xlink="http://www.w3.org/1999/xlink">
 <defs>
  <style type="text/css">
   <![CDATA[
    .fil1 {fill:white}
    .fil0 {fill:white;fill-rule:nonzero}
   ]]>
  </style>
 </defs>
 <g id="Capa_x0020_1">
  <metadata id="CorelCorpID_0Corel-Layer"/>
  <g id="_105553418487168">
   <path class="fil0" d="M24.69 22.48c-0.95,0 -1.61,-0.39 -1.9,-1.21 -0.16,-0.49 -0.26,-1.27 -0.26,-2.43l0 -12.91 2.95 0 0 12.02c0,0.69 0,1.05 0.04,1.15 0.07,0.46 0.3,0.69 0.69,0.69 0.59,0 1.21,-0.46 1.87,-1.38l0 -12.47 2.96 0 0 16.32 -2.96 0 0 -1.78c-1.18,1.35 -2.3,2 -3.38,2zm-8.97 0c-1.47,0 -2.62,-0.56 -3.44,-1.67 -0.63,-0.82 -0.93,-2.1 -0.93,-3.84l0 -5.72c0,-1.74 0.3,-3.02 0.93,-3.84 0.82,-1.12 1.97,-1.67 3.44,-1.67 1.48,0 2.63,0.56 3.45,1.67 0.62,0.82 0.92,2.1 0.92,3.84l0 5.72c0,1.73 -0.3,3.02 -0.92,3.84 -0.82,1.11 -1.97,1.67 -3.45,1.67zm0 -14.08c-0.95,0 -1.41,0.75 -1.41,2.26l0 6.87c0,1.51 0.46,2.26 1.41,2.26 0.95,0 1.41,-0.75 1.41,-2.26l0 -6.87c0,-1.51 -0.46,-2.26 -1.41,-2.26zm-8.34 13.86l-3.28 0 0 -8.87c-0.3,-1.57 -0.95,-3.87 -2,-6.93 -0.69,-2.03 -1.41,-4.07 -2.1,-6.1l3.45 0 2.33 8.6 2.24 -8.6 3.32 0 -3.94 13.03 0 8.87z"/>
   <path class="fil0" d="M58.95 28.76c-0.37,0 -0.73,-0 -1.1,-0 -0.37,0 -0.73,0 -1.1,0 -5.69,0 -11.39,-0.04 -17.03,-0.67 -2.53,-0.28 -4.64,-2.18 -5.23,-4.76 -0.84,-3.67 -0.84,-7.67 -0.84,-11.45 0,-0.06 0,-0.12 0,-0.19 0,3.7 0.02,7.6 0.84,11.17 0.59,2.58 2.7,4.47 5.23,4.76 5.64,0.63 11.35,0.67 17.03,0.67 0.37,0 0.73,-0 1.1,-0 0.37,0 0.73,0 1.1,0 5.69,0 11.39,-0.04 17.03,-0.67 2.53,-0.28 4.64,-2.18 5.23,-4.76 0.83,-3.62 0.85,-7.56 0.85,-11.29 0,0.1 0,0.2 0,0.3 0,3.78 -0.01,7.78 -0.85,11.45 -0.59,2.58 -2.7,4.47 -5.23,4.76 -5.64,0.63 -11.35,0.67 -17.03,0.67z"/>
   <path class="fil1" d="M74.17 22.47c-1.53,0 -2.7,-0.55 -3.54,-1.65 -0.62,-0.81 -0.94,-2.08 -0.94,-3.8l0 -5.66c0,-1.73 0.28,-2.99 0.91,-3.81 0.85,-1.11 2.01,-1.65 3.5,-1.65 1.47,0 2.63,0.55 3.45,1.65 0.61,0.82 0.9,2.08 0.9,3.81l0 3.34 -5.85 0 0 2.86c0,1.49 0.49,2.24 1.49,2.24 0.72,0 1.14,-0.39 1.31,-1.17 0.03,-0.16 0.06,-0.81 0.06,-1.98l2.99 0 0 0.43c0,0.94 -0.04,1.59 -0.06,1.88 -0.1,0.65 -0.33,1.24 -0.68,1.75 -0.81,1.17 -2.01,1.75 -3.54,1.75zm-0.1 -13.93c-0.98,0 -1.47,0.75 -1.47,2.24l0 1.5 2.93 0 0 -1.5c0,-1.49 -0.49,-2.24 -1.46,-2.24zm-9.29 13.93c-1.04,0 -2.05,-0.58 -3.02,-1.79l0 1.57 -2.93 0 0 -21.67 2.93 0 0 7.08c0.94,-1.16 1.95,-1.75 3.02,-1.75 1.16,0 1.95,0.61 2.34,1.82 0.19,0.65 0.29,1.72 0.29,3.25l0 6.43c0,1.49 -0.1,2.57 -0.29,3.26 -0.39,1.2 -1.17,1.81 -2.34,1.81zm-1.57 -13.93c-0.48,0 -0.97,0.23 -1.46,0.71l0 9.84c0.49,0.49 0.98,0.72 1.46,0.72 0.84,0 1.27,-0.72 1.27,-2.18l0 -6.89c0,-1.46 -0.43,-2.2 -1.27,-2.2zm-13.19 13.93c-0.94,0 -1.59,-0.38 -1.89,-1.2 -0.16,-0.49 -0.26,-1.26 -0.26,-2.4l0 -12.77 2.93 0 0 11.89c0,0.69 0,1.04 0.03,1.14 0.07,0.45 0.29,0.68 0.68,0.68 0.59,0 1.2,-0.45 1.85,-1.37l0 -12.34 2.93 0 0 16.15 -2.93 0 0 -1.76c-1.16,1.33 -2.27,1.98 -3.34,1.98zm-6.07 -0.22l-3.26 0 0 -18.62 -3.44 0 0 -3.05 10.2 0 0 3.05 -3.5 0 0 18.62 0 0z"/>
   <path class="fil1" d="M78.46 16.74l0 -0.43 -2.99 0c0,1.17 -0.04,1.82 -0.06,1.98 -0.17,0.78 -0.59,1.17 -1.31,1.17 -1,0 -1.49,-0.75 -1.49,-2.24l0 -2.86 5.85 0 0 -3.34c0,-1.73 -0.29,-2.99 -0.9,-3.81 -0.82,-1.11 -1.98,-1.66 -3.45,-1.66 -1.49,0 -2.66,0.55 -3.5,1.66 -0.62,0.82 -0.9,2.08 -0.9,3.81l0 5.66c0,1.72 0.32,2.99 0.94,3.8 0.85,1.1 2.01,1.65 3.54,1.65 1.53,0 2.73,-0.58 3.54,-1.75 0.36,-0.52 0.59,-1.1 0.68,-1.75 0.03,-0.29 0.06,-0.94 0.06,-1.89zm-2.93 -4.81l-2.93 0 0 -1.49c0,-1.49 0.49,-2.24 1.47,-2.24 0.97,0 1.46,0.75 1.46,2.24l0 1.49zm-8.12 5.13l0 -6.43c0,-1.53 -0.1,-2.6 -0.29,-3.25 -0.39,-1.21 -1.17,-1.82 -2.34,-1.82 -1.08,0 -2.08,0.59 -3.02,1.75l0 -7.08 -2.93 0 0 21.67 2.93 0 0 -1.57c0.98,1.21 1.98,1.79 3.02,1.79 1.17,0 1.95,-0.61 2.34,-1.82 0.2,-0.68 0.29,-1.76 0.29,-3.25zm-2.93 0.23c0,1.46 -0.43,2.18 -1.27,2.18 -0.48,0 -0.97,-0.23 -1.46,-0.72l0 -9.84c0.49,-0.48 0.98,-0.71 1.46,-0.71 0.84,0 1.27,0.75 1.27,2.2l0 6.89zm-11.12 4.62l0 -1.76c-1.16,1.33 -2.27,1.98 -3.34,1.98 -0.94,0 -1.59,-0.38 -1.89,-1.2 -0.16,-0.49 -0.26,-1.26 -0.26,-2.4l0 -12.77 2.93 0 0 11.89c0,0.69 0,1.04 0.03,1.14 0.07,0.45 0.29,0.68 0.68,0.68 0.59,0 1.2,-0.45 1.85,-1.37l0 -12.34 2.93 0 0 16.15 -2.93 0zm-5.91 -18.62l0 -3.05 -10.2 0 0 3.05 3.44 0 0 18.62 3.25 0 0 -18.62 3.5 0z"/>
   <path class="fil1" d="M31.04 21.9l0 -16.32 -2.96 0 0 12.47c-0.66,0.93 -1.28,1.38 -1.87,1.38 -0.4,0 -0.63,-0.23 -0.69,-0.69 -0.04,-0.1 -0.04,-0.46 -0.04,-1.15l0 -12.02 -2.95 0 0 12.91c0,1.15 0.1,1.93 0.26,2.43 0.29,0.83 0.95,1.21 1.9,1.21 1.08,0 2.2,-0.66 3.38,-2l0 1.78 2.96 0zm-13.89 -4.73c0,1.51 -0.46,2.26 -1.41,2.26 -0.95,0 -1.41,-0.75 -1.41,-2.26l0 -6.87c0,-1.51 0.46,-2.26 1.41,-2.26 0.95,0 1.41,0.75 1.41,2.26l0 6.87zm2.96 -0.56l0 -5.72c0,-1.74 -0.3,-3.02 -0.92,-3.84 -0.82,-1.12 -1.97,-1.67 -3.45,-1.67 -1.47,0 -2.62,0.56 -3.44,1.67 -0.63,0.82 -0.93,2.1 -0.93,3.84l0 5.72c0,1.73 0.3,3.02 0.93,3.84 0.82,1.11 1.97,1.67 3.44,1.67 1.48,0 2.63,-0.56 3.45,-1.67 0.62,-0.82 0.92,-2.1 0.92,-3.84zm-8.76 -16.62l-3.32 0 -2.24 8.6 -2.33 -8.6 -3.45 0c0.69,2.03 1.41,4.07 2.1,6.1 1.05,3.05 1.71,5.36 2,6.93l0 8.87 3.28 0 0 -8.87 3.94 -13.03z"/>
  </g>
 </g>
</svg>
